<svg id="Layer_1" data-name="Layer 1" xmlns="http://www.w3.org/2000/svg" viewBox="0 0 1000 723.06"><defs><style>.cls-1{fill:#00ab92;}</style></defs><title>Hack Cincinnati Primary Logo</title><path class="cls-1" d="M202.67,480.31c-21.7,0-42.78-10.62-62.9-31.74l1-.95c25.88,27.18,53.33,36.74,81.58,28.4l.39,1.31A70.58,70.58,0,0,1,202.67,480.31Z"/><path class="cls-1" d="M222.17,475.76c-47.2-13.59-72.8-69.28-81.62-92.6l1.27-.48C150.57,405.8,176,461,222.55,474.45Z"/><path class="cls-1" d="M157.61,478.76a88,88,0,0,1-18.08-1.86l.28-1.34c25.61,5.37,53.37-1.07,82.55-19.11l.72,1.16C200.31,471.68,178.37,478.76,157.61,478.76Z"/><path class="cls-1" d="M105.23,462a138.92,138.92,0,0,1-27.95-25.85l1-.88A137.63,137.63,0,0,0,106,460.86Z"/><path class="cls-1" d="M138.49,368.88h-4.1v-7.07l-6.67-3.49V344.39h3.33v-1.07c-1.12-1.14-3.4-3-5.69-3h-1.82c-2.29,0-4.58,1.83-5.7,3v1.07h3.34v13.93l-6.68,3.49v7.07h-4.09v-9.55l6.67-3.49v-7.35h-3.34v-6.7l.47-.57c.17-.2,4.15-5,9.33-5h1.82c5.17,0,9.16,4.77,9.33,5l.46.57v6.7h-3.33v7.35l6.67,3.49Z"/><polygon class="cls-1" points="127.51 340.35 121.38 340.35 122.4 320.46 126.49 320.46 127.51 340.35"/><path class="cls-1" d="M76.33,368.88h-4.1v-7.07l-6.67-3.49V344.39H68.9v-1.07c-1.12-1.14-3.41-3-5.7-3H61.38c-2.29,0-4.57,1.83-5.7,3v1.07H59v13.93l-6.67,3.49v7.07h-4.1v-9.55l6.67-3.49v-7.35H51.59v-6.7l.46-.57c.17-.2,4.15-5,9.33-5H63.2c5.18,0,9.16,4.77,9.33,5l.46.57v6.7H69.66v7.35l6.67,3.49Z"/><polygon class="cls-1" points="65.36 340.35 59.23 340.35 60.24 320.46 64.34 320.46 65.36 340.35"/><polygon class="cls-1" points="144.36 492.13 140.26 492.13 140.26 483.42 137.63 479.36 137.63 434.84 136.41 430.1 136.41 386.93 140.26 377.41 140.26 370.93 42.19 370.93 42.19 377.41 46.04 386.93 45.97 430.64 44.83 434.84 44.83 479.36 42.19 483.42 42.19 492.13 38.09 492.13 38.09 482.2 40.73 478.15 40.8 434.03 41.95 429.83 41.95 387.73 38.09 378.2 38.09 366.83 144.36 366.83 144.36 378.2 140.51 387.73 140.51 429.83 141.72 434.56 141.72 478.15 144.36 482.2 144.36 492.13"/><path class="cls-1" d="M105,492.13h-4.1V482.2l2.64-4.05.07-44.12,1.15-4.2v-20a12.6,12.6,0,0,0-12.6-12.59h-1A12.6,12.6,0,0,0,78.63,409.8v20l1.22,4.73v43.59l2.64,4.05v9.93h-4.1v-8.71l-2.64-4.06V434.84l-1.21-4.74V409.8a16.7,16.7,0,0,1,16.68-16.69h1a16.7,16.7,0,0,1,16.69,16.69l-.07,20.84-1.14,4.2v44.52L105,483.42Z"/><path class="cls-1" d="M373.8,139.3c-1.4-12.29-7.58-30.71-29.07-48.62a3.25,3.25,0,0,0-4.11,0C319.15,108.57,313,127,311.56,139.22l-2.72-.31c1.47-12.77,7.87-31.86,30-50.33a6,6,0,0,1,7.61,0c22.19,18.5,28.58,37.62,30,50.41Z"/><path class="cls-1" d="M371.53,139.55c-4.27-13.86-13.29-26.6-26.8-37.87a3.22,3.22,0,0,0-4.11,0c-13.52,11.27-22.53,24-26.8,37.87l-2.61-.81c4.42-14.37,13.73-27.54,27.66-39.15a6,6,0,0,1,7.61,0c13.93,11.61,23.23,24.78,27.66,39.15Z"/><path class="cls-1" d="M366.87,139.78c-5-9.53-12.39-18.45-22-26.51a3.38,3.38,0,0,0-4.34,0c-9.6,8-17,16.91-22,26.4l-2.42-1.27c5.14-9.81,12.76-19,22.64-27.22a6.09,6.09,0,0,1,7.84,0c9.92,8.28,17.56,17.48,22.71,27.33Z"/><path class="cls-1" d="M358.08,139.87a99.31,99.31,0,0,0-13.24-13.27,3.36,3.36,0,0,0-4.33,0,99.09,99.09,0,0,0-13.23,13.25l-2.12-1.73a102.77,102.77,0,0,1,13.59-13.62,6.13,6.13,0,0,1,7.85,0,102.29,102.29,0,0,1,13.59,13.64Z"/><polygon class="cls-1" points="423.38 370.43 419.28 370.43 419.28 7.79 425.83 7.79 425.83 0 444.07 0 444.07 7.79 455.58 7.79 455.58 16.62 451.48 16.62 451.48 11.89 439.98 11.89 439.98 4.1 429.93 4.1 429.93 11.89 423.38 11.89 423.38 370.43"/><polygon class="cls-1" points="400.68 392.42 396.58 392.42 396.58 199.12 389.56 199.12 389.56 180.86 384.09 180.86 384.09 158.66 375.88 158.66 375.88 141.05 308.05 141.05 308.05 158.66 299.84 158.66 299.84 180.86 294.36 180.86 294.36 199.12 287.34 199.12 287.34 355.87 283.25 355.87 283.25 195.02 290.26 195.02 290.26 176.77 295.74 176.77 295.74 154.56 303.95 154.56 303.95 136.96 379.98 136.96 379.98 154.56 388.18 154.56 388.18 176.77 393.66 176.77 393.66 195.02 400.68 195.02 400.68 392.42"/><path class="cls-1" d="M113.47,533v67.14H95V573.87H72.52v26.29H54.08V533H72.52v24.77H95V533Z"/><path class="cls-1" d="M147.13,533H164l23.26,67.14H168.51L164.44,587H146.57l-4,13.15H123.78Zm14.38,41.7-6-20.8-6.24,20.8Z"/><path class="cls-1" d="M191.11,566a33,33,0,0,1,2.32-12.1,32.58,32.58,0,0,1,6.76-10.69,33.73,33.73,0,0,1,25.25-10.59,33.89,33.89,0,0,1,16.88,4A26.21,26.21,0,0,1,253,547.29l-14.09,10a11.94,11.94,0,0,0-2.5-4.07,12.75,12.75,0,0,0-3.45-2.55,14.69,14.69,0,0,0-3.93-1.32,20.71,20.71,0,0,0-3.92-.38,13.8,13.8,0,0,0-11.59,5.62,17.61,17.61,0,0,0-2.74,5.68,22.93,22.93,0,0,0-.9,6.29,21.75,21.75,0,0,0,1,6.71,17.45,17.45,0,0,0,3,5.67,14.73,14.73,0,0,0,4.87,3.93,14,14,0,0,0,6.48,1.46,18.62,18.62,0,0,0,3.87-.42,14.29,14.29,0,0,0,3.83-1.42,12.91,12.91,0,0,0,3.31-2.55,11.35,11.35,0,0,0,2.32-3.83l15,9a18.93,18.93,0,0,1-4.58,6.62,29.1,29.1,0,0,1-7,4.92,36.94,36.94,0,0,1-8.42,3,38.23,38.23,0,0,1-8.74,1,31.08,31.08,0,0,1-13.67-3,34.43,34.43,0,0,1-10.68-7.89,35.88,35.88,0,0,1-7-11.16A34.27,34.27,0,0,1,191.11,566Z"/><path class="cls-1" d="M264.87,600.16V533h18.44v25.53L303.73,533h20.81l-24.4,30.07,26.1,37.07H305.06l-16.65-24.68-5.1,5.29v19.39Z"/><path class="cls-1" d="M356,566a33.46,33.46,0,0,1,9.07-22.79,34.55,34.55,0,0,1,10.78-7.66,34.19,34.19,0,0,1,14.47-2.93,33.84,33.84,0,0,1,16.88,4,26.17,26.17,0,0,1,10.64,10.63l-14.09,10a11.94,11.94,0,0,0-2.5-4.07,12.64,12.64,0,0,0-3.46-2.55,14.62,14.62,0,0,0-3.92-1.32A20.79,20.79,0,0,0,390,549a13.8,13.8,0,0,0-11.59,5.62,17.61,17.61,0,0,0-2.74,5.68,22.93,22.93,0,0,0-.9,6.29,21.75,21.75,0,0,0,1,6.71,17.26,17.26,0,0,0,3,5.67,14.73,14.73,0,0,0,4.87,3.93,14,14,0,0,0,6.48,1.46,18.7,18.7,0,0,0,3.87-.42,14.42,14.42,0,0,0,3.83-1.42,12.91,12.91,0,0,0,3.31-2.55,11.35,11.35,0,0,0,2.32-3.83l15,9a19.07,19.07,0,0,1-4.58,6.62,29.1,29.1,0,0,1-7,4.92,37.11,37.11,0,0,1-8.42,3,38.3,38.3,0,0,1-8.74,1,31.05,31.05,0,0,1-13.67-3,34.43,34.43,0,0,1-10.68-7.89,35.91,35.91,0,0,1-7-11.16A34.46,34.46,0,0,1,356,566Z"/><path class="cls-1" d="M429.79,600.16V533h18.44v67.14Z"/><path class="cls-1" d="M482.93,567.15v33H464.49V533h14.37l27,34.13V533h18.44v67.14H509.6Z"/><path class="cls-1" d="M536.83,566a33.21,33.21,0,0,1,2.32-12.1,32.75,32.75,0,0,1,6.76-10.69,34.55,34.55,0,0,1,10.78-7.66A37.33,37.33,0,0,1,588,536.66a26.17,26.17,0,0,1,10.64,10.63l-14.09,10a12,12,0,0,0-2.51-4.07,12.75,12.75,0,0,0-3.45-2.55,14.74,14.74,0,0,0-3.92-1.32,20.89,20.89,0,0,0-3.93-.38,13.79,13.79,0,0,0-11.58,5.62,17.41,17.41,0,0,0-2.74,5.68,22.93,22.93,0,0,0-.9,6.29,21.45,21.45,0,0,0,1,6.71,17.26,17.26,0,0,0,3,5.67,14.79,14.79,0,0,0,4.86,3.93,14.07,14.07,0,0,0,6.48,1.46,18.72,18.72,0,0,0,3.88-.42,14.42,14.42,0,0,0,3.83-1.42A12.91,12.91,0,0,0,582,580a11.17,11.17,0,0,0,2.31-3.83l15,9a19.2,19.2,0,0,1-4.58,6.62,29.49,29.49,0,0,1-7,4.92,37.28,37.28,0,0,1-8.42,3,38.32,38.32,0,0,1-8.75,1,31,31,0,0,1-13.66-3,34.59,34.59,0,0,1-10.69-7.89,36.06,36.06,0,0,1-7-11.16A34.27,34.27,0,0,1,536.83,566Z"/><path class="cls-1" d="M610.6,600.16V533H629v67.14Z"/><path class="cls-1" d="M663.74,567.15v33H645.3V533h14.37l27,34.13V533h18.44v67.14H690.41Z"/><path class="cls-1" d="M739.77,567.15v33H721.33V533H735.7l27,34.13V533H781.1v67.14H766.44Z"/><path class="cls-1" d="M814.76,533h16.83l23.26,67.14H836.13L832.06,587H814.19l-4,13.15H791.4Zm14.37,41.7-6-20.8-6.24,20.8Z"/><path class="cls-1" d="M911.31,549.09H892v51.07H873.58V549.09H854.2V533h57.11Z"/><path class="cls-1" d="M922.75,600.16V533h18.44v67.14Z"/><polygon class="cls-1" points="573.44 432.18 556.37 432.18 556.37 218.61 557.48 217.31 552.88 217.31 552.88 182.3 554.01 181.55 548.52 177.56 550.06 174.27 534.61 143.53 534.61 140.37 530.26 140.37 530.26 120.7 526.82 120.7 526.82 140.37 522.47 140.37 522.47 143.53 507.02 174.27 508.56 177.56 503.07 181.55 504.19 182.3 504.19 217.31 499.6 217.31 500.71 218.61 500.71 412.94 484.4 412.94 484.4 408.84 496.61 408.84 496.61 220.12 490.75 213.21 500.1 213.21 500.1 184.5 495.87 181.71 503.41 176.24 502.46 174.21 518.37 142.56 518.37 136.27 522.72 136.27 522.72 116.61 534.35 116.61 534.35 136.27 538.7 136.27 538.7 142.56 554.61 174.21 553.66 176.24 561.21 181.71 556.98 184.5 556.98 213.21 566.32 213.21 560.47 220.12 560.47 428.08 569.34 428.08 569.34 209.45 642.27 209.45 642.27 218.84 649.8 218.84 649.8 229.67 657.31 229.67 657.31 239.84 665.27 239.84 665.27 248.24 671.68 248.24 671.68 258.85 678.53 258.85 678.53 269.01 683.33 269.01 683.33 273.11 674.43 273.11 674.43 262.94 667.58 262.94 667.58 252.34 661.17 252.34 661.17 243.94 653.22 243.94 653.22 233.77 645.7 233.77 645.7 222.93 638.18 222.93 638.18 213.54 573.44 213.54 573.44 432.18"/><polygon class="cls-1" points="467.31 389.98 463.21 389.98 463.21 50.3 458.66 50.3 458.66 31.67 456.28 31.67 456.28 18.67 439.48 18.67 439.48 33.62 431.78 33.62 431.78 50.3 421.33 50.3 421.33 46.2 427.69 46.2 427.69 29.52 435.38 29.52 435.38 14.57 460.38 14.57 460.38 27.57 462.76 27.57 462.76 46.2 467.31 46.2 467.31 389.98"/><rect class="cls-1" x="579" y="230.16" width="63.76" height="1.37"/><rect class="cls-1" x="579" y="219.83" width="56.04" height="1.37"/><rect class="cls-1" x="579" y="240.49" width="66.95" height="1.37"/><rect class="cls-1" x="579" y="250.82" width="74.92" height="1.37"/><rect class="cls-1" x="579" y="261.15" width="79.71" height="1.37"/><rect class="cls-1" x="579" y="271.49" width="86.08" height="1.37"/><rect class="cls-1" x="579" y="281.82" width="94.84" height="1.37"/><rect class="cls-1" x="579" y="292.15" width="86.08" height="1.37"/><rect class="cls-1" x="579" y="302.48" width="81.18" height="1.37"/><rect class="cls-1" x="579" y="312.81" width="70.41" height="1.37"/><rect class="cls-1" x="579" y="323.14" width="70.41" height="1.37"/><rect class="cls-1" x="579" y="333.47" width="70.41" height="1.37"/><rect class="cls-1" x="579" y="343.81" width="70.41" height="1.37"/><rect class="cls-1" x="579" y="354.14" width="70.41" height="1.37"/><rect class="cls-1" x="579" y="364.47" width="60.49" height="1.37"/><rect class="cls-1" x="579" y="374.8" width="60.49" height="1.37"/><rect class="cls-1" x="579" y="385.13" width="60.49" height="1.37"/><rect class="cls-1" x="579" y="395.46" width="60.49" height="1.37"/><rect class="cls-1" x="579" y="405.79" width="60.49" height="1.37"/><rect class="cls-1" x="579" y="416.12" width="60.49" height="1.37"/><rect class="cls-1" x="579" y="426.46" width="60.49" height="1.37"/><polygon class="cls-1" points="641.54 444.12 637.44 444.12 637.44 364.17 641.05 364.17 641.05 351.41 647.37 351.41 647.37 309.04 658.13 309.04 658.13 296.7 680.55 269.25 702.8 269.25 725.22 296.7 725.22 309.04 736.72 309.04 736.72 352.42 742.18 352.42 742.18 364.17 746.07 364.17 746.07 352.42 750.98 352.42 750.98 309.04 762.47 309.04 762.47 296.7 784.89 269.25 807.14 269.25 829.56 296.7 829.56 309.04 840.32 309.04 840.32 351.41 846.64 351.41 846.64 364.17 850.25 364.17 850.25 377.61 846.15 377.61 846.15 368.27 842.54 368.27 842.54 355.51 836.23 355.51 836.23 313.13 825.46 313.13 825.46 298.16 805.2 273.34 786.83 273.34 766.57 298.16 766.57 313.13 755.07 313.13 755.07 356.52 750.17 356.52 750.17 368.27 738.09 368.27 738.09 356.52 732.62 356.52 732.62 313.13 721.12 313.13 721.12 298.16 700.86 273.34 682.49 273.34 662.23 298.16 662.23 313.13 651.47 313.13 651.47 355.51 645.15 355.51 645.15 368.27 641.54 368.27 641.54 444.12"/><rect class="cls-1" x="660.77" y="318.49" width="1.37" height="37.28"/><rect class="cls-1" x="675.78" y="318.49" width="1.37" height="37.28"/><rect class="cls-1" x="690.78" y="318.49" width="1.37" height="37.28"/><rect class="cls-1" x="705.79" y="318.49" width="1.37" height="37.28"/><rect class="cls-1" x="720.79" y="318.49" width="1.37" height="37.28"/><rect class="cls-1" x="765.44" y="318.49" width="1.37" height="37.28"/><rect class="cls-1" x="780.45" y="318.49" width="1.37" height="37.28"/><rect class="cls-1" x="795.46" y="318.49" width="1.37" height="37.28"/><rect class="cls-1" x="810.46" y="318.49" width="1.37" height="37.28"/><rect class="cls-1" x="825.47" y="318.49" width="1.37" height="37.28"/><path class="cls-1" d="M618.2,46.61c1.26-2.12,2.52-1.25,3.85-.18a9.11,9.11,0,0,1,3.07,10.3,2.67,2.67,0,0,0,.21,2.37A7.89,7.89,0,0,1,623.39,69a7.33,7.33,0,0,0-1.55,6,22,22,0,0,1,.56,14.66c-.33,1.05,0,1.47.86,1.7,1.21.3,2.25,1.52,3.71.8-.25-.63-.8-.64-1.22-.85-1.66-.87-2.25-2.2-1.63-3.74a2.83,2.83,0,0,1,3.66-1.81c2,.64,2.94,2,2.28,3.66-.53,1.39,0,1.82,1.13,2.19.62.2,1.51.27,1,1.44s-1.23.45-1.75.18a1.76,1.76,0,0,0-2.47.4c-1.08,1.16-2.44.69-3.73.15-2.73-1.15-2.76-1.15-4.35,1.25a22.74,22.74,0,0,1-14.41,9.79c-1.27.3-1.77.63-1.61,2.1.4,3.53-1.84,5.68-5.39,5.35-1.87-.18-3.73-.52-5.6-.73-.88-.09-1.24-.47-1.31-1.38-.12-1.57-.43-3.13-.57-4.7a1.42,1.42,0,0,0-1.14-1.41c-.72-.24-1.05,0-1.51.56a4.82,4.82,0,0,1-4.46,1.56c-1.87-.19-3.73-.52-5.6-.73a1.23,1.23,0,0,1-1.28-1.4c0-.73-.19-1.45-.26-2.17-.46-4.23-.78-8.47-3.65-12A7.1,7.1,0,0,1,572,87.45c-.88-3.13-1.75-6.11-4.45-8.43-1.79-1.54-1.65-4.12-.78-6.35,1-2.67,2.21-5.29,3.27-8a1.18,1.18,0,0,1,1.53-.87c.24.06.51,0,.73.06,3.44,1.23,5.67-.9,8-2.82.55-.46.44-1,.4-1.48-.1-1.21-.28-2.42-.32-3.63-.11-2.88,1.86-4.26,4.54-3.21a16.32,16.32,0,0,1,5,3.35,2.74,2.74,0,0,0,2.43.85,22.15,22.15,0,0,1,6.35.16,2.08,2.08,0,0,0,2.18-.8c3.79-4.35,7.68-8.61,11.46-13,.75-.86,1.3-1,2.27-.41A12.13,12.13,0,0,1,618.2,46.61Zm-34.52,9.27c.15,1.88.25,3.57.45,5.24a1.68,1.68,0,0,1-.94,2,16.11,16.11,0,0,0-4.69,3.72,1.91,1.91,0,0,1-1.73.78c-1.37-.11-3-.84-4.06-.12s-1.25,2.56-1.89,3.87c-.08.16-.14.34-.21.51-1.72,4.09-1.65,4.5,1.71,7.29A4,4,0,0,1,574,82.05a13.75,13.75,0,0,0,2.59,7.33c2.41,3,2.78,6.35,3.15,9.85.09.79.2,1.57.32,2.35.05.35,0,.81.53.84,1.62.09,3.29,1,4.83.28,1.31-.57.43-2.11.75-3.16a2.4,2.4,0,0,1,.2-.38c.89.37,1.77.78,2.67,1.11,1.59.59,3.77.69,4.64,1.82s.62,3.37.89,5.11c.09.61-.1,1.43,1,1.37,1.62-.09,3.3,1.19,4.87-.1.36-.3.25-.91.19-1.4-.13-1-.19-1.94-.39-2.89-.26-1.26-.08-1.81,1.47-2,8.29-1.05,14.65-4.92,17.45-13.16,2.33-6.89.46-13.09-3.8-18.88a6.79,6.79,0,0,1-7.62,3c-2.85-.58-5.75-1-8.63-1.42L588.72,70l8.54-9.7a22.66,22.66,0,0,0-6.33.19,2.08,2.08,0,0,1-2.19-.79A15.06,15.06,0,0,0,583.68,55.88Zm11.45,11.81c5.14.81,9.86,1.62,14.6,2.27,1.88.26,3.21-1.41,2.87-3.5-.17-1-.08-1.45.94-1.92,3.44-1.61,4.06-5.16,1.43-7.93-.69-.73-.86-1.16-.18-2.09a5.91,5.91,0,0,0,0-7c-.51-.68-.85-1-1.64-.13C607.27,54.09,601.32,60.73,595.13,67.69ZM618.65,69c0-1,.49-1.34,1.28-1.72,3.44-1.65,4.12-5.19,1.47-7.91-.84-.87-.72-1.34-.11-2.25a5.72,5.72,0,0,0,0-6.69c-.24-.38-.44-1-1-.88a1.39,1.39,0,0,0-1,1.21,15.57,15.57,0,0,1-.5,3,3.15,3.15,0,0,0,.22,2.89,7.4,7.4,0,0,1-1.12,8.66c-1,1.13-1.09,1.79,0,2.72A6.92,6.92,0,0,1,618.65,69ZM627,89.9c.43.31.9.34,1.18-.51s.18-1.37-.7-1.72a1.1,1.1,0,0,0-1.63.58C625.45,89.2,626.15,89.52,627,89.9Z"/><path class="cls-1" d="M585.52,68.12a1.78,1.78,0,0,1-2.52.93,1.69,1.69,0,0,1-.94-2.41,1.71,1.71,0,0,1,2.52-1A1.75,1.75,0,0,1,585.52,68.12Z"/><path class="cls-1" d="M721.13,111a6.93,6.93,0,0,0-1.17,2.45c-.55,1.47-1.49,3.89-2.84,7.24h.06a27,27,0,0,0,4-.35,7.08,7.08,0,0,0,.83-.05c.16-1.89.27-3,.32-3.22s.21-1,.4-1.83l.32-1.4.36-4.05-.75,0C722.07,109.72,721.55,110.13,721.13,111Z"/><path class="cls-1" d="M819.53,115.31c-.45-.84-.91-1.27-1.39-1.27a3.12,3.12,0,0,0-1.24.22l-.56.3a6.85,6.85,0,0,0-.55.44l1.74,3.3.05,0c1.57-1,2.25-1.7,2-2.08.11-.06.12-.28,0-.65Z"/><path class="cls-1" d="M816.43,107.66l-1.48-2.8a6.92,6.92,0,0,0-2.38-2.47,7.41,7.41,0,0,0-2.81.35l-.84.44q2.77,4.3,5.28,9.08l.06,0a4,4,0,0,0,1.49-1.5,2.69,2.69,0,0,0,.84-1.8A6.23,6.23,0,0,1,816.43,107.66Z"/><path class="cls-1" d="M827.48,97.11l7.85-14.65c-20.83,14.28-53.86,27.21-83.63,17.69-49.28-15.77-61.49-6.77-61.49-6.77l-8.75,22.33-6.52,17c20.45-10.79,74.24,30.26,125.47,3.24,42.75-22.55,46.42-32,46.42-32C839.91,107.39,827.48,97.11,827.48,97.11ZM708.61,119.5l-.11.37c-.14.42-.34,1.22-.64,2.38l-.59,1.94a12.91,12.91,0,0,0-.48,2.36c-.07.24-.52.25-1.34.06a7.82,7.82,0,0,1-1.43-.31c-.33-.1-.41-.44-.24-1a4.3,4.3,0,0,1,.16-.41c.11-.5.43-1.61,1-3.34.2-.64.38-1.32.53-2a24.37,24.37,0,0,0-4-.36l-1.91-.25c-.15.77-.57,2.3-1.28,4.59a8.13,8.13,0,0,1-.88,1.78.59.59,0,0,1-.26,0c-1.61-.5-2.36-.9-2.26-1.23a9.29,9.29,0,0,0,.35-1.35l1-2.88.33-1.49L697,117c1.65-5.07,2.56-7.86,2.71-8.37q1.4-4.53,1.82-6.12c.11-.37,1-.3,2.52.18.41.12.57.33.48.61s-.19.54-.23.52l0,.33-1.69,5.5q-1,3.09-2,6.18a26.45,26.45,0,0,0,3.71.42c1.27.17,2,.28,2.15.33a25.79,25.79,0,0,0,.88-2.44l1.55-5q.42-1.81.66-2.58a14.45,14.45,0,0,1,.31-1.88c.13-.41,1-.37,2.48.1.49.15.61.62.36,1.43l-.78,3.4-1.69,5.5C709.81,116.14,709.3,117.61,708.61,119.5Zm17.54-5.64c0,.38-.33,1.82-.86,4.32l-.51,5.83c-.07.75-.15,1.46-.25,2.14a27.47,27.47,0,0,0-.33,4c0,.72,0,1.29-.06,1.74-.07.29-1,.3-2.93,0-.25-.06-.27-1.08-.06-3.07.11-.92.2-1.71.24-2.37,0-.17.11-.73.27-1.66l.13-1.4c-.24,0-1.53.14-3.85.46l-.76-.08c-.09,0-.49,0-1.21,0l-.47,1.92c-.36,1.19-.59,2-.7,2.5,0,.05,0,.25-.07.62l-.05.47q-.13.63-2.22.15c-.51-.11-.81-.28-.92-.52l0-.13q.81-3,1.59-6c1.1-3,1.66-4.55,1.72-4.73a32.81,32.81,0,0,0,1.69-4.23,6.65,6.65,0,0,0,.68-1.86,10.66,10.66,0,0,0,.71-1.64c.14-.06.3-.35.51-.85l.58-.78c.74-1.11,1.31-1.66,1.73-1.63a5.64,5.64,0,0,1,3.68-.22,2.53,2.53,0,0,1,2,1.91,3.77,3.77,0,0,1,.08,1.28Zm15.67,3.81c-.06.34-.24.47-.53.43l-1.95-.29c-.31,0-.46-.33-.45-.85a14.59,14.59,0,0,1,.24-1.86,1.57,1.57,0,0,0-.48-1l-1.34-.53-.5-.07c-1.18.24-1.8.55-1.87.93a5.83,5.83,0,0,0-.8,1.55,6,6,0,0,0-.86,2.34q-.51,3.34-1.06,6.84a11,11,0,0,0,.21,2.53,16.05,16.05,0,0,0,.24,1.82c.25.66.61,1,1.09,1.11a6.25,6.25,0,0,1,.86.45l1.25.2q.9-.27,1-.93a2.15,2.15,0,0,0,.15-.51l.18-1.17.23-1.2a1.69,1.69,0,0,1,0-.5.52.52,0,0,1,.62-.35l1.84.27q.66.11.57.72l-.25,1.37L740,130.6a5.58,5.58,0,0,1-1,2.19,4.92,4.92,0,0,1-2.76,1.44c0,.08-.17.1-.46.06l-2.13-.32c-1.84-.79-2.82-1.4-2.93-1.84a4.69,4.69,0,0,1-1.21-3.38,6.74,6.74,0,0,1-.28-2.92c-.13,0-.07-.8.15-2.33l.94-6a13.24,13.24,0,0,1,1.45-3.76,1.92,1.92,0,0,0,.38-.85,10.25,10.25,0,0,1,1.65-1.61l1.44-.56a4.18,4.18,0,0,1,1.44-.24,8.75,8.75,0,0,1,1.21.13,7.39,7.39,0,0,1,3.25,1.64,5.83,5.83,0,0,1,1.06,2.72Zm15.66-3.61a18.34,18.34,0,0,1-1.3,3.09,9,9,0,0,1-1,2.43,30.12,30.12,0,0,1-1.33,2.71,10.68,10.68,0,0,0-1,1.86l-1.4,2.71c.47.88,1.13,2,2,3.4a14.64,14.64,0,0,0,.72,1.66q.5,1,1,2.19a30.78,30.78,0,0,1,1.13,3.15c-.05.35-.73.68-2.09,1l-.31,0c-.28,0-.81-1-1.57-3a26.57,26.57,0,0,0-2.78-5.56,14.9,14.9,0,0,0-1.14-1.66h-.07l-.14,1.19a7.94,7.94,0,0,1,.09.9l-.3,2.64a12.92,12.92,0,0,1-.06,2.22c-.09.2-.31.28-.67.24l-2-.23c-.34,0-.46-.45-.37-1.25a4.58,4.58,0,0,0,0-.46c0-.25.1-1.21.3-2.87-.06-.65-.08-1-.08-1l1.39-13.21a24.47,24.47,0,0,1,.18-3.74.55.55,0,0,1,.61-.37l1.82.21c.46,0,.67.24.64.58a7.56,7.56,0,0,0-.07,1.14,3.16,3.16,0,0,0-.14.68,13.83,13.83,0,0,0,0,1.66c-.37,3.53-.71,6.74-1,9.62h.06a2.8,2.8,0,0,1,.57-1.09c1.09-2.15,1.64-3.26,1.65-3.31a7.21,7.21,0,0,0,1-1.8,35.44,35.44,0,0,0,2.06-4.6c.09,0,.26-.54.5-1.66.23-.48.49-.71.79-.68,1.68.49,2.51.83,2.49,1.06ZM781,132.76a5,5,0,0,1-2.12,2.29c0,.08-.12.15-.41.21l-2.11.42c-2-.13-3.13-.38-3.38-.76a4.76,4.76,0,0,1-2.28-2.77,7,7,0,0,1-1.24-2.66q-.18,0-.63-2.25l-1.16-6a13.76,13.76,0,0,1,.11-4,1.86,1.86,0,0,0,.07-.92,10.32,10.32,0,0,1,1-2.08l1.18-1a3.8,3.8,0,0,1,1.27-.72,10.19,10.19,0,0,1,1.18-.28,7.2,7.2,0,0,1,3.61.46c1.19,1,1.83,1.75,1.91,2.2l.55,2.73c.06.33-.06.52-.35.57l-1.94.39c-.31.06-.54-.16-.7-.65a15.62,15.62,0,0,1-.41-1.83c0-.25-.32-.52-.8-.81l-1.43-.05-.5.1c-1,.62-1.5,1.12-1.44,1.51a5.68,5.68,0,0,0-.24,1.72,6.14,6.14,0,0,0,0,2.5c.43,2.21.87,4.47,1.31,6.8a9.4,9.4,0,0,0,1,2.3,14.93,14.93,0,0,0,.83,1.64,1.51,1.51,0,0,0,1.41.68,4.69,4.69,0,0,1,1,.14l1.24-.24a1.24,1.24,0,0,0,.66-1.22,3.08,3.08,0,0,0,0-.52l-.22-1.17-.2-1.2a1.87,1.87,0,0,1-.15-.49.54.54,0,0,1,.47-.53l1.83-.37a.59.59,0,0,1,.78.49l.22,1.37.31,1.67A5.53,5.53,0,0,1,781,132.76Zm12.71-1.94s-.19.11-.6.22c-2.71.78-4.07,1.14-4.09,1.1l-.11.09-.54.16c-.33.1-.6-.25-.82-1,0-.17-.43-1.22-1.15-3.15a65.41,65.41,0,0,0-2.69-8.11l-.68-2.38c0-.16-.22-.65-.55-1.49-.91-3.08-1.45-4.88-1.59-5.39-.08-.3.21-.56.9-.78,1.29-.37,2-.43,2-.19.19.69.33,1.24.4,1.66.35,1.08.69,2.18,1,3.33a12.93,12.93,0,0,0,.53,1.43l1,3.4c.11,0,.35.5.71,1.58a48.05,48.05,0,0,1,1.67,5.44l.63,2a.33.33,0,0,0,.45.26l2-.8c.55-.28,1.19-.57,1.93-.87.36-.1.63.13.79.7.27.8.46,1.4.57,1.81Q795.53,130.16,793.68,130.82Zm12.38-4.07-1.91.83a7.06,7.06,0,0,1-2.7.29,4,4,0,0,1-1.73-.78,7.69,7.69,0,0,1-2.15-2.58l-1.93-4.32c-.32-1.13-.52-1.79-.59-2a40.18,40.18,0,0,1-1.31-3.87l-1.92-4.41a.08.08,0,0,1,0-.08l-.1-.08-.36-.85c-.16-.41.13-.78.88-1.11a4.92,4.92,0,0,1,1.18-.59c.36-.14.6-.08.71.16s.16.38.17.4c.06.18.22.63.46,1.34q1.62,3.78,2,4.65c.2.52.41,1.13.64,1.85s.43,1.31.61,1.79a10.83,10.83,0,0,1,.52,1.78l1.81,4c.79,1,1.31,1.56,1.56,1.52.05.13.51.08,1.39-.13l1.16-.5a2.87,2.87,0,0,0,.35-1.35,5.43,5.43,0,0,0-.31-2.32l-1.1-2.44a14.86,14.86,0,0,1-.42-1.6,3.89,3.89,0,0,0-.17-.53c-.08-.21-.58-1.33-1.48-3.34-.64-2-1.05-3.26-1.23-3.73-.72-1.7-1.22-2.79-1.49-3.29-.13-.33.46-.82,1.76-1.47l.15,0c.45-.18.75-.12.88.17l1.13,2.57c.19.54.46,1.28.81,2.21s.61,1.75.8,2.45q1.23,2.73,1.44,3.27a16.71,16.71,0,0,1,.73,2.43l1.18,2.6a13.43,13.43,0,0,1,.29,1.6C807.83,124.41,807.26,126.23,806.06,126.75Zm16.21-8.81a7.31,7.31,0,0,1-3.33,3l-1,.5c-1.12.58-1.72.81-1.8.66l-.2-.25-3.15-6c-.52-.8-.82-1.27-.88-1.4a124,124,0,0,0-6.74-11.42,1.16,1.16,0,0,1,.06-1,1.72,1.72,0,0,1,.29-.57l2.55-1.33a8.62,8.62,0,0,1,5.19-.73,7,7,0,0,1,2.5,1.55,16.42,16.42,0,0,1,2.25,3.25l.58,1.11a9.75,9.75,0,0,1,1,3.68,8.09,8.09,0,0,1-.5,2,4.83,4.83,0,0,1,2.45,1.79,14,14,0,0,1,1,1.87A5,5,0,0,1,822.27,117.94Z"/><path class="cls-1" d="M677.49,114c-24.15,0-45.28-19.06-46.23-19.93l1.84-2c.24.22,24.44,22,49.51,18.91l.34,2.71A43.83,43.83,0,0,1,677.49,114Z"/><path class="cls-1" d="M909.15,496.14h-4.1V414.67h-8.61v-5.38h-6.1v-6.67h-5.27l-.58-1.09C878.3,390,857,378,832.05,378h-3c-24.94,0-46.25,12-52.44,23.54l-.58,1.09h-5.27v6.67h-6.1v5.38H756v52.55h-4.09V410.57h8.6v-5.38h6.1v-6.67h7C781,386.23,803.3,373.9,829,373.9h3c25.73,0,48,12.33,55.44,24.62h7v6.67h6.1v5.38h8.61Z"/><path class="cls-1" d="M887.78,447.25h-4.09a53.15,53.15,0,0,0-106.3,0h-4.1a57.25,57.25,0,1,1,114.49,0Z"/><rect class="cls-1" x="774.95" y="440.55" width="110.2" height="4.1"/><rect class="cls-1" x="813.51" y="394.26" width="1.37" height="48.34"/><rect class="cls-1" x="824.16" y="419.65" width="1.37" height="22.95"/><rect class="cls-1" x="824.16" y="392.05" width="1.37" height="10.58"/><rect class="cls-1" x="834.81" y="419.65" width="1.37" height="22.95"/><rect class="cls-1" x="834.81" y="392.05" width="1.37" height="10.1"/><rect class="cls-1" x="845.46" y="394.26" width="1.37" height="48.34"/><rect class="cls-1" x="856.11" y="399" width="1.37" height="43.6"/><rect class="cls-1" x="866.76" y="406.73" width="1.37" height="35.86"/><rect class="cls-1" x="802.86" y="398.77" width="1.37" height="43.83"/><rect class="cls-1" x="792.21" y="406.35" width="1.37" height="36.25"/><rect class="cls-1" x="510.02" y="184.23" width="1.37" height="30.35"/><rect class="cls-1" x="519.25" y="184.23" width="1.37" height="30.35"/><rect class="cls-1" x="528.48" y="184.23" width="1.37" height="30.35"/><rect class="cls-1" x="537.71" y="184.23" width="1.37" height="30.35"/><rect class="cls-1" x="304.18" y="166.3" width="1.37" height="202"/><rect class="cls-1" x="314.67" y="148.33" width="1.37" height="219.72"/><rect class="cls-1" x="325.15" y="148.33" width="1.37" height="307.16"/><rect class="cls-1" x="335.63" y="148.33" width="1.37" height="307.16"/><rect class="cls-1" x="346.12" y="148.33" width="1.37" height="307.16"/><rect class="cls-1" x="356.6" y="148.33" width="1.37" height="307.16"/><rect class="cls-1" x="367.09" y="148.33" width="1.37" height="307.16"/><rect class="cls-1" x="377.57" y="166.3" width="1.37" height="288.78"/><rect class="cls-1" x="388.05" y="208.56" width="1.37" height="160.32"/><rect class="cls-1" x="293.7" y="208.56" width="1.37" height="153.08"/><rect class="cls-1" x="546.94" y="184.23" width="1.37" height="30.35"/><path class="cls-1" d="M830.54,422.73a12,12,0,1,1,12-12A12,12,0,0,1,830.54,422.73Zm0-19.86a7.89,7.89,0,1,0,7.88,7.88A7.9,7.9,0,0,0,830.54,402.87Z"/><path class="cls-1" d="M223.14,497.72h-4.09V272.26l2.53-42.38,4.08-.08,3.66,37.77h6.6l6.48-34.41,3.7,34.41h7.21l4.32-37.8,4.09.16c0,.57,1.81,56.62,1.81,69.19,0,11.23.08,55.81.1,65.92h15.74V349h9.23v16H289c.82-5.26,2.43-7.92,4.8-7.92,3.17,0,5.44,4.22,6.09,7.92h17.89v-16.8h9.72V453.07h54.22V408.25l8-64.07,4.78,49.41,32.7-31.68V348.79h12.05v13.12l32.7,31.68,4.78-49.4,8,63.8v47.83h-4.1V408.25l-3.37-26.92-2,21.12-40.06-38.81V352.89h-3.86v10.75l-40,38.81-2-21.08-3.39,27.13v48.67H323.4V352.33h-1.53v16.8H296v-2a9.84,9.84,0,0,0-1.86-5.5,23.85,23.85,0,0,0-1.31,5.72l-.2,1.82H284.5v-16h-1v16H259.54v-2s-.11-55.28-.11-68c0-6.48-.48-24.65-.95-40.73L257,271.67H242.42l-1.13-10.49-2,10.49H225.6l-1.49-15.44-1,16.15Z"/><path class="cls-1" d="M240.87,317.39a12,12,0,1,1,12-12A12,12,0,0,1,240.87,317.39Zm0-19.86a7.88,7.88,0,1,0,7.88,7.88A7.89,7.89,0,0,0,240.87,297.53Z"/><path class="cls-1" d="M459.5,412.94H407v-2.05a26.28,26.28,0,0,1,52.55,0Zm-48.36-4.1h44.17a22.18,22.18,0,0,0-44.17,0Z"/><path class="cls-1" d="M8.29,535.13a33.84,33.84,0,0,1,33.8-33.8l407.24.4v-8.29L42.1,493A42.14,42.14,0,0,0,0,535.13V681a41.88,41.88,0,0,1,8.29-25Z"/><path class="cls-1" d="M202.9,723.06H42.1A42.14,42.14,0,0,1,0,681a4.15,4.15,0,1,1,8.29,0,33.84,33.84,0,0,0,33.81,33.8H202.9a4.15,4.15,0,0,1,0,8.29Z"/><path class="cls-1" d="M956.16,499.65a2.07,2.07,0,0,1-1.91-1.28l-31.63-75.45a2.07,2.07,0,1,1,3.82-1.61l31.63,75.46a2.06,2.06,0,0,1-1.11,2.71A1.89,1.89,0,0,1,956.16,499.65Z"/><path class="cls-1" d="M976.47,495.06a2.07,2.07,0,0,1-1.91-1.27l-29.71-70.87a2.07,2.07,0,1,1,3.82-1.61l29.71,70.88a2.07,2.07,0,0,1-1.11,2.71A2,2,0,0,1,976.47,495.06Z"/><path class="cls-1" d="M992.25,478.32a2.07,2.07,0,0,1-1.91-1.27l-21.81-52a2.08,2.08,0,0,1,3.83-1.61l21.8,52a2.08,2.08,0,0,1-1.11,2.72A2,2,0,0,1,992.25,478.32Z"/><path class="cls-1" d="M933.9,499.65a2.08,2.08,0,0,1-1.91-1.28l-25.44-60.7a2.07,2.07,0,1,1,3.82-1.61l25.45,60.71a2.07,2.07,0,0,1-1.11,2.71A1.93,1.93,0,0,1,933.9,499.65Z"/><path class="cls-1" d="M68.3,720.54a2.08,2.08,0,0,1-1.92-1.27l-31.44-75a2.07,2.07,0,0,1,3.82-1.6l31.45,75a2.07,2.07,0,0,1-1.91,2.87Z"/><path class="cls-1" d="M90.53,720.54a2.06,2.06,0,0,1-1.91-1.27L57,643.82a2.08,2.08,0,0,1,3.83-1.61l31.63,75.46a2.07,2.07,0,0,1-1.91,2.87Z"/><path class="cls-1" d="M113.32,720.54a2.06,2.06,0,0,1-1.91-1.27L79.78,643.82a2.09,2.09,0,0,1,1.11-2.72,2.07,2.07,0,0,1,2.71,1.11l31.64,75.46a2.08,2.08,0,0,1-1.11,2.71A2.13,2.13,0,0,1,113.32,720.54Z"/><path class="cls-1" d="M46,720.54a2.06,2.06,0,0,1-1.91-1.27l-28-66.85a2.07,2.07,0,1,1,3.82-1.6l28,66.85a2.07,2.07,0,0,1-1.11,2.71A2,2,0,0,1,46,720.54Z"/><path class="cls-1" d="M158.63,720.54a2.06,2.06,0,0,1-1.91-1.27l-31.64-75.45a2.08,2.08,0,0,1,3.83-1.61l31.63,75.46a2.07,2.07,0,0,1-1.91,2.87Z"/><path class="cls-1" d="M180.86,720.54a2.06,2.06,0,0,1-1.91-1.27l-31.64-75.45a2.08,2.08,0,0,1,3.83-1.61l31.63,75.46a2.07,2.07,0,0,1-1.91,2.87Z"/><path class="cls-1" d="M203.65,720.54a2.06,2.06,0,0,1-1.91-1.27l-31.63-75.45a2.09,2.09,0,0,1,1.11-2.72,2.07,2.07,0,0,1,2.71,1.11l31.64,75.46a2.08,2.08,0,0,1-1.11,2.71A2.13,2.13,0,0,1,203.65,720.54Z"/><path class="cls-1" d="M136.37,720.54a2.06,2.06,0,0,1-1.91-1.27l-31.63-75.45a2.07,2.07,0,1,1,3.82-1.61l31.63,75.46a2.07,2.07,0,0,1-1.11,2.71A2,2,0,0,1,136.37,720.54Z"/><path class="cls-1" d="M42.1,638.87A42,42,0,0,0,8.29,656v25A33.85,33.85,0,0,1,42.1,647.16H449.33v-8.29Z"/><path class="cls-1" d="M995.85,455.92a4.15,4.15,0,0,1,4.15,4.15A42.15,42.15,0,0,0,957.9,418H911.66a4.15,4.15,0,0,0,0,8.29H957.9a33.85,33.85,0,0,1,33.81,33.81A4.14,4.14,0,0,1,995.85,455.92Z"/><path class="cls-1" d="M957.9,502.16a42,42,0,0,0,33.81-17.11v-25a33.84,33.84,0,0,1-33.8,33.8l-437.57-.43v8.29Z"/><path class="cls-1" d="M0,681a4.15,4.15,0,0,0,8.29,0V656A41.88,41.88,0,0,0,0,681Z"/><rect class="cls-1" x="449.33" y="493.44" width="71.02" height="8.29"/><rect class="cls-1" x="449.33" y="638.87" width="71.02" height="8.29"/><path class="cls-1" d="M1000,459.21l-1-3-5.57-1.08-1.7,3.27a24.62,24.62,0,0,1-.5,7.49c-.91,3.88.5,19.21.5,19.21v120a33.85,33.85,0,0,1-33.81,33.81H520.34v8.29H957.9a42.15,42.15,0,0,0,42.1-42.1v-145h0Z"/></svg>
