<?xml version="1.0" encoding="utf-8"?>
<!-- Generator: Adobe Illustrator 15.0.0, SVG Export Plug-In . SVG Version: 6.00 Build 0)  -->
<!DOCTYPE svg PUBLIC "-//W3C//DTD SVG 1.1//EN" "http://www.w3.org/Graphics/SVG/1.1/DTD/svg11.dtd">
<svg version="1.1" id="Layer_1" xmlns="http://www.w3.org/2000/svg" xmlns:xlink="http://www.w3.org/1999/xlink" x="0px" y="0px"
	 width="612px" height="170px" viewBox="0 0 612 170" enable-background="new 0 0 612 170" xml:space="preserve">
<polygon fill="#010101" points="4.082,133.027 4.082,70.174 67.672,70.174 67.672,81.133 18.701,81.133 18.701,97.699 
	45.137,97.699 45.137,109.157 18.701,109.157 18.701,133.027 "/>
<polygon fill="#010101" points="85.823,133.027 85.823,70.174 100.439,70.174 100.439,121.215 147.583,121.215 147.583,133.027 "/>
<polygon fill="#010101" points="165.989,133.027 165.989,70.174 230.307,70.174 230.307,80.888 180.604,80.888 180.604,94.903 
	209.595,94.903 209.595,105.622 180.604,105.622 180.604,121.215 230.914,121.215 230.914,133.027 "/>
<g>
	<path fill="#1079BF" d="M249.348,133.027l29.844-32.277l-30.333-30.576h19.367l20.104,21.314l19.122-21.314
		c0,0,46.359-59.183,125.57-59.183c95.115,0,132.563,52.493,132.563,52.493S524.523,22.335,434,22.335
		c-65.773,0-109.733,47.839-109.733,47.839l-27.413,28.868l33.868,33.985h-19.855l-23.027-24.364l-21.196,24.364H249.348z"/>
</g>
<polygon fill="#010101" points="348.454,133.027 348.454,70.174 412.775,70.174 412.775,80.888 363.072,80.888 363.072,94.903 
	392.061,94.903 392.061,105.622 363.072,105.622 363.072,121.215 413.384,121.215 413.384,133.027 "/>
<g>
	<path fill="#010101" d="M479.283,80.888h-32.893v17.669h32.893c2.27,0,3.852-0.25,4.747-0.739c1.219-0.739,1.828-2.166,1.828-4.295
		v-7.606c0-2.124-0.609-3.551-1.828-4.285C483.135,81.133,481.553,80.888,479.283,80.888 M432.012,133.027V70.174h53.847
		c9.417,0,14.134,4.055,14.134,12.177v14.744c0,8.122-4.717,12.183-14.134,12.183h-8.283l28.998,23.75h-20.955l-25.338-23.75h-13.89
		v23.75H432.012z"/>
</g>
<path fill="#010101" d="M551.86,107.934h27.53l-13.525-25.583L551.86,107.934z M523.722,133.027l35.568-62.853h14.129l36.058,62.853
	h-16.441l-7.559-13.765h-39.832l-7.31,13.765H523.722z"/>
<g>
	<path fill="#1079BF" d="M325.109,147.443h-10.703v3.498H324.6c1.557,0,2.629,0.271,3.207,0.791
		c0.583,0.526,0.875,1.547,0.875,3.066v2.239c0,1.52-0.292,2.535-0.875,3.066c-0.572,0.525-1.646,0.786-3.202,0.786h-10.073
		c-1.552,0-2.624-0.261-3.202-0.786c-0.577-0.531-0.869-1.547-0.869-3.066v-0.443l3.353-0.692v1.922h11.516v-3.718h-10.162
		c-1.562,0-2.624-0.271-3.191-0.796c-0.567-0.521-0.849-1.547-0.849-3.062v-1.796c0-1.521,0.281-2.535,0.849-3.066
		c0.567-0.526,1.63-0.786,3.191-0.786h9.251c1.494,0,2.546,0.25,3.14,0.755c0.604,0.51,0.906,1.447,0.906,2.811v0.344l-3.354,0.792
		V147.443z"/>
	<path fill="#1079BF" d="M355.451,157.829h12.505V147.5h-12.505V157.829z M351.661,148.453c0-1.521,0.281-2.541,0.854-3.062
		c0.572-0.525,1.635-0.797,3.187-0.797h12.005c1.552,0,2.613,0.271,3.187,0.797c0.562,0.521,0.854,1.541,0.854,3.062v8.585
		c0,1.515-0.292,2.54-0.854,3.061c-0.573,0.531-1.635,0.792-3.187,0.792h-12.005c-1.552,0-2.614-0.261-3.187-0.792
		c-0.572-0.521-0.854-1.546-0.854-3.061V148.453z"/>
</g>
<polygon fill="#1079BF" points="395.199,160.891 395.199,144.601 411.677,144.601 411.677,147.438 398.989,147.438 398.989,151.738 
	405.841,151.738 405.841,154.7 398.989,154.7 398.989,160.891 "/>
<polygon fill="#1079BF" points="439.436,147.505 439.436,160.891 435.646,160.891 435.646,147.505 428.159,147.505 428.159,144.601 
	446.953,144.601 446.953,147.505 "/>
<polygon fill="#1079BF" points="470.401,160.891 464.123,144.601 468.037,144.601 472.171,155.522 476.497,144.601 479.147,144.601 
	483.567,155.522 487.519,144.601 490.897,144.601 484.613,160.891 482.053,160.891 477.57,149.619 473.025,160.891 "/>
<path fill="#1079BF" d="M515.934,154.388h7.132l-3.503-6.633L515.934,154.388z M508.635,160.891l9.22-16.29h3.66l9.35,16.29h-4.258
	l-1.969-3.566h-10.318l-1.89,3.566H508.635z"/>
<g>
	<path fill="#1079BF" d="M563.829,147.375h-8.527v4.582h8.527c0.583,0,0.995-0.068,1.229-0.193c0.312-0.188,0.474-0.563,0.474-1.108
		v-1.974c0-0.546-0.162-0.921-0.474-1.114C564.824,147.438,564.412,147.375,563.829,147.375 M551.574,160.891v-16.29h13.958
		c2.441,0,3.659,1.052,3.659,3.154v3.821c0,2.108-1.218,3.155-3.659,3.155h-2.15l7.518,6.159h-5.43l-6.565-6.159h-3.603v6.159
		H551.574z"/>
</g>
<polygon fill="#1079BF" points="592.369,160.891 592.369,144.601 609.039,144.601 609.039,147.375 596.159,147.375 596.159,151.009 
	603.666,151.009 603.666,153.789 596.159,153.789 596.159,157.829 609.195,157.829 609.195,160.891 "/>
<path fill="#010101" d="M604.749,70.127l1.739,4.41l1.624-4.41h1.219v5.544h-0.75v-4.883l-1.838,4.883h-0.516l-1.946-4.883v4.883
	h-0.75v-5.544H604.749z M602.198,70.127v0.599h-1.791v4.946h-0.864v-4.946h-1.832v-0.599H602.198z"/>
</svg>
