<?xml version="1.0" encoding="utf-8"?>
<!-- Generator: Adobe Illustrator 22.1.0, SVG Export Plug-In . SVG Version: 6.00 Build 0)  -->
<svg version="1.1" id="Layer_1" xmlns="http://www.w3.org/2000/svg" xmlns:xlink="http://www.w3.org/1999/xlink" x="0px" y="0px"
	 viewBox="0 0 1000 200" style="enable-background:new 0 0 1000 200;" xml:space="preserve">
<style type="text/css">
	.st0{fill:#E12529;}
	.st1{fill:#666666;}
</style>
<g>
	<g>
		<path d="M23.9,123.3V70.8H6.4V47.8h17.5V11.7h31.5v36.1h27v23.1h-27v45.5c0,11.2,3.2,14.8,14.6,14.8c3.5,0,8.3-0.4,10.4-1.2v22.7
			c-2.4,0.6-14,1.6-20.9,1.6C28.4,154.2,23.9,143,23.9,123.3z"/>
		<path d="M79.7,126c0-24.2,20.5-37.6,66.6-41.4v-2.6c0-7.7-3.9-12.6-14.2-12.6c-13.4,0-24.8,5.5-34.5,13L84.2,64.3
			c10.4-9.5,26.2-18.7,52.4-18.7c28.8,0,40.6,14.2,40.6,41.2v40.4c0,12.6,0.8,20.3,3,25.6h-31.5c-1.4-4.3-2.4-9.5-2.4-15.4
			c-9.7,10.8-21.1,16.9-36.6,16.9C93.5,154.4,79.7,143.9,79.7,126z M146.3,121.5V102c-25,2.6-35.7,8.9-35.7,18.5
			c0,6.7,4.7,10,11.6,10C133.2,130.5,140.9,126.8,146.3,121.5z"/>
		<path d="M178.5,138.8l12.6-17.7c9.5,8.3,23.6,13.6,36.4,13.6c9.9,0,16.7-3.4,16.7-10.2c0-7.3-5.5-10-19.9-12.6
			c-19.9-3.5-41.2-8.3-41.2-32.9c0-21.1,17.3-33.3,40.8-33.3c21.5,0,34.5,5.5,46.1,14.8l-12.4,17.9c-10.6-7.3-21.1-11.4-30.9-11.4
			c-9.1,0-14.2,3.5-14.2,9.3c0,6.3,5.7,8.9,18.7,11.2c20.7,3.5,42.6,8.3,42.6,32.1c0,25.4-22.1,35.5-46.3,35.5
			C204.5,155,189.1,147.9,178.5,138.8z"/>
		<path d="M287,123.3V70.8h-17.5V47.8H287V11.7h31.5v36.1h27v23.1h-27v45.5c0,11.2,3.2,14.8,14.6,14.8c3.5,0,8.3-0.4,10.4-1.2v22.7
			c-2.4,0.6-14,1.6-20.9,1.6C291.5,154.2,287,143,287,123.3z"/>
		<path d="M339.9,189.3l6.7-24.4c3,0.8,10.4,2.8,19.9,2.8c6.9,0,10.8-2.6,13.4-9.1l2-5.1L341.7,47.8h32.7l23.1,68.2h0.4l23.3-68.2
			h30.7l-44.1,116C400.6,182,391,193,369.9,193C354.3,193,345.4,190.8,339.9,189.3z"/>
	</g>
	<g>
		<circle class="st0" cx="976.7" cy="138" r="16.9"/>
	</g>
	<g>
		<path class="st1" d="M692.6,47.8h31.7v17.5h0.2c5.7-8.9,15.8-19.7,35.5-19.7h1l-0.4,28.2c-1.2-0.2-6.3-0.6-8.3-0.6
			c-12.6,0-22.1,6.7-28,14.4v65.2h-31.7V47.8z"/>
		<path class="st1" d="M766.1,7h31.7v80l32.7-39.2h34.1L830.4,87l36.3,65.8h-32.7L810.7,110l-12.8,14.4v28.4h-31.7V7z"/>
		<path class="st1" d="M858.9,138.8l12.6-17.7c9.5,8.3,23.6,13.6,36.5,13.6c9.8,0,16.7-3.4,16.7-10.2c0-7.3-5.5-10-19.9-12.6
			c-19.9-3.5-41.2-8.3-41.2-32.9c0-21.1,17.3-33.3,40.8-33.3c21.5,0,34.5,5.5,46.1,14.8l-12.4,17.9C927.5,71,917,66.9,907.2,66.9
			c-9.1,0-14.2,3.5-14.2,9.3c0,6.3,5.7,8.9,18.7,11.2c20.7,3.5,42.6,8.3,42.6,32.1c0,25.4-22.1,35.5-46.3,35.5
			C884.9,155,869.6,147.9,858.9,138.8z"/>
		<path class="st1" d="M633.8,45.4c-30.3,0-54.9,24.6-54.9,54.9c0,30.3,24.6,54.9,54.9,54.9c30.3,0,54.9-24.6,54.9-54.9
			C688.8,70,664.2,45.4,633.8,45.4z M633.8,126.8c-14.7,0-26.6-11.9-26.6-26.6c0-14.7,11.9-26.6,26.6-26.6
			c14.7,0,26.6,11.9,26.6,26.6C660.4,115,648.5,126.8,633.8,126.8z"/>
		<g>
			<path class="st1" d="M561,47.8l-9.7,37.8c-3,10.8-4.7,18.5-7.3,31.9h-0.4c-2.8-13.6-4.3-21.3-7.5-32.3l-9.7-37.4h-24.6l-9.1,36.8
				c-3,11.4-4.7,19.1-7.3,32.9h-0.4c-2.4-13.6-4.1-21.1-6.9-32.1l-9.1-37.6h-7.4l-13.9,36.3l20.1,68.7h29.2l15.8-64h0.4l15.8,64
				h29.4l30.7-105H561z"/>
		</g>
	</g>
</g>
</svg>
