<?xml version="1.0" encoding="utf-8"?>
<!-- Generator: Adobe Illustrator 22.1.0, SVG Export Plug-In . SVG Version: 6.00 Build 0)  -->
<svg version="1.1" id="Layer_1" xmlns="http://www.w3.org/2000/svg" xmlns:xlink="http://www.w3.org/1999/xlink" x="0px" y="0px"
	 viewBox="0 0 1250 500" style="enable-background:new 0 0 1250 500;" xml:space="preserve">
<style type="text/css">
	.st0{fill:#E21F26;}
	.st1{fill:#B52025;}
	.st2{fill:#F28D92;}
</style>
<g>
	<path class="st0" d="M241.2,370.2c0,56.1-50,101.6-111.7,101.6c-61.7,0-111.7-45.5-111.7-101.6c0-56.1,50-101.6,111.7-101.6
		C191.2,268.6,241.2,314.1,241.2,370.2"/>
	<path class="st1" d="M45.5,373.9c-7.8,29.5,21.6,59.2,40.7,67.5c16.8,7.3,50,12.1,73.4-2c-37.5-3.5-91.4-13.8-113-65.5"/>
	<path class="st2" d="M195.1,362.7c-1.4,7.6-10.4,12.3-20.2,10.5c-9.7-1.8-16.5-9.4-15-17c1.4-7.6,10.4-12.3,20.2-10.5
		C189.8,347.4,196.5,355.1,195.1,362.7"/>
	<path d="M129.5,261.1c-1.9,0-3.7,0.1-5.6,0.1c-3.8-72.9,20.4-139,69.9-191.3l0.6-0.5C213,53.7,213,53.7,216.5,51.3
		c1.6-1.2,4-2.8,9.3-6.9l0.6-0.5l0.2-0.7c1.2-4-1.5-10.4-4.9-17.6c-0.6-1.3-1.1-2.4-1.5-3.3c-0.4-1.1-1.4-1.7-2.5-1.7
		c-1.2,0-2.1,0.7-3.1,1.5c-1.1,0.8-2.4,1.9-3.6,1.9c-0.7,0-1.4-0.3-2.2-1c-0.4-1-1.4-1.5-2.3-1.5c-1.2,0-2.4,0-7.3,9.5
		c-2.3,2.6-25.2,28.8-30.2,34.4c-33,33.9-65.8,121.2-62.3,197.7c-54.9,9.8-96.5,54.1-96.5,107.1c0,60.2,53.5,109.2,119.3,109.2
		c65.8,0,119.3-49,119.3-109.2C248.8,310,195.3,261.1,129.5,261.1 M129.5,464.2c-57.4,0-104.1-42.2-104.1-94
		c0-45.6,36.2-83.8,84.1-92.2c1.6,9.9,4.6,24.4,7.6,30.4c1.5,3,2.5,5.4,3.4,7.3c-0.1,0-0.1,0-0.2,0c-8.8-1.5-11.8-5.6-14.6-9.7
		c-2.3-3.3-5.4-8.1-8.8-5.9c-3.3,2.3-4.2,6.8-1.9,10.1c5.7,8.3,16.6,12.9,29.9,12.6c1.8,0,3.7-0.2,5.6-0.4
		c11.1-1.4,23.1-6.4,28.6-15.3c2.1-3.4,1-7.9-2.4-10c-3.4-2.1-7.4,9.4-15.6,14.3c-1.2,0.7-2.5,1.4-4,2.2c-6.6-12-9.8-26.3-11.4-35.9
		c-0.1-0.4-0.1-0.8-0.2-1.2c1.3-0.1,2.7-0.1,4-0.1c57.4,0,104.1,42.2,104.1,94C233.6,422,186.9,464.2,129.5,464.2"/>
	<g>
		<path d="M1234.6,220c-3.5,3.5-7.7,5.3-12.7,5.3c-5,0-9.2-1.8-12.6-5.3c-3.5-3.5-5.2-7.7-5.2-12.7c0-4.9,1.7-9.1,5.2-12.6
			c3.5-3.5,7.7-5.2,12.6-5.2c5,0,9.2,1.7,12.7,5.2c3.5,3.5,5.2,7.7,5.2,12.6C1239.8,212.2,1238.1,216.5,1234.6,220z M1211,196.4
			c-3,3-4.5,6.6-4.5,10.9c0,4.3,1.5,7.9,4.5,11c3,3,6.6,4.5,10.9,4.5c4.3,0,7.9-1.5,10.9-4.5c3-3,4.5-6.7,4.5-11
			c0-4.3-1.5-7.9-4.5-10.9c-3-3-6.6-4.5-10.9-4.5C1217.7,191.9,1214,193.4,1211,196.4z M1221.6,197.4c2.4,0,4.2,0.2,5.4,0.7
			c2,0.8,3,2.5,3,5c0,1.8-0.6,3.1-1.9,3.9c-0.7,0.4-1.6,0.8-2.8,0.9c1.5,0.2,2.7,0.9,3.4,1.9c0.7,1,1.1,2.1,1.1,3v1.4
			c0,0.5,0,0.9,0.1,1.5c0,0.5,0.1,0.9,0.2,1l0.1,0.2h-3.2c0-0.1,0-0.1,0-0.2c0-0.1,0-0.1,0-0.2l-0.1-0.6v-1.6c0-2.3-0.6-3.8-1.9-4.5
			c-0.7-0.4-2-0.6-3.8-0.6h-2.7v7.7h-3.5v-19.6H1221.6z M1225.3,200.5c-0.9-0.5-2.3-0.7-4.2-0.7h-3v7.1h3.1c1.5,0,2.6-0.1,3.3-0.4
			c1.4-0.5,2-1.6,2-3.1C1226.6,202,1226.2,201,1225.3,200.5z"/>
	</g>
	<path d="M430.4,280.9c-5.7-0.5-6.1-0.6-6.1-9.3v-44.8c0-25.2-12.7-36.9-39.9-36.9c-30.8,0-48.4,11.8-48.4,32.5
		c0,3.3,0.3,4.7,1.5,8.3l0.8,2.2l31.6-6.9l-1.2-3.5c-0.3-0.8-0.3-1-0.3-1.2c0-3.3,5.1-7,12.3-7c5.4,0,10.5,1.7,10.5,14.2v7
		l-28.6,8.2c-16.4,4.8-23.6,10.4-27.7,21.4c-1.3,3.9-2,7.9-2,11.7c0,18.4,14.2,31.8,33.9,31.8c10.7,0,19.6-3.5,29.3-11.6
		c4.9,8.1,10.5,10.3,23.8,10.3h7.9l5.5-25.9L430.4,280.9z M375.4,281.6c-5.4,0-8.4-3-8.4-8.4c0-2,0.2-3.5,1.5-6.9l22.8-7.5v16
		c-3.1,2.4-4.3,3.1-5.8,3.8C382.2,280.5,378.5,281.6,375.4,281.6z"/>
	<path d="M519.3,247.5c-5.4-4.1-21.5-11.2-33.1-15.2c-9.7-3.4-11.6-5.9-11.6-8.8c0-4.4,6.1-7.5,14.9-7.5c7.4,0,16.1,2.6,23.4,7.1
		c2,1.1,4.5,2.7,7.2,4.5l2.8,1.8l10.8-27.7l-2-1.2c-9.9-5.7-13.8-7.1-24.4-9.3c-6.9-1.4-13-2.1-18.3-2.1
		c-27.7,0-46.3,14.6-46.3,36.4c0,15.5,9.6,26.7,29.4,34.2l18.5,7.2c8.2,3.1,9.1,6.5,9.1,8.8c0,4.8-7.3,6.6-14.2,6.6
		c-3.6,0-7.3-0.6-11.2-2c-7.4-2.4-11.4-4.2-22.5-11.1l-2.7-1.7l-10.8,27.7l2.2,1.1c12.1,6.2,17.2,8.1,27.2,10.2
		c6.7,1.4,12.7,2.1,18.1,2.1c27.3,0,45.7-14.2,45.7-35.3C531.5,262.9,526.5,252.5,519.3,247.5z"/>
	<path d="M681.9,191l-16.9,49.9l-0.3,1.3l-20-51.2h-36l40.7,93.8c-5.6,16-8.8,22.7-15.8,33.4c-5.6,8.9-9.4,13.4-19.6,24.3l-2.2,2.3
		l27.4,17.9l1.5-1.9c9.5-11.8,12.7-16.3,19.1-27.3c8.2-13.4,12.2-21.8,17.6-37.2L714.9,191H681.9z"/>
	<path d="M967,280.9c-5.5-0.5-6.1-0.6-6.1-9.3v-44.8c0-25.2-12.7-36.9-39.9-36.9c-30.8,0-48.4,11.8-48.4,32.5c0,3.4,0.3,4.9,1.5,8.3
		l0.8,2.2l31.6-6.9l-1.2-3.5c-0.3-0.8-0.3-0.9-0.3-1.2c0-3.3,5.1-7,12.3-7c5.5,0,10.5,1.7,10.5,14.2v7l-28.6,8.2
		c-16.4,4.8-23.6,10.4-27.7,21.4c-1.3,3.9-2,7.9-2,11.7c0,18.4,14.2,31.8,33.9,31.8c10.7,0,19.6-3.5,29.3-11.6
		c4.9,8.1,10.5,10.3,23.8,10.3h8l5.5-25.9L967,280.9z M912,281.6c-5.4,0-8.4-3-8.4-8.4c0-2,0.2-3.5,1.4-6.9l22.8-7.5v16
		c-3.1,2.4-4.3,3.1-5.8,3.8C918.8,280.5,915.1,281.6,912,281.6z"/>
	<path d="M1048.6,131.9V195c-3.7-2.3-6.5-3.2-10.9-4.1c-3-0.9-6.3-1.3-10.2-1.3c-29.8,0-54,28.2-54,62.8c0,32.6,19.7,56.3,46.8,56.3
		c7.5,0,14.8-2.2,21.5-6.4c3-1.9,4.9-3.5,6.8-5.5v8.9h32.9V131.9H1048.6z M1048.6,238.8v27.6c-6.1,9.1-13.7,14.3-21.1,14.3
		c-11.5,0-19.5-12.5-19.5-30.4c0-18.6,10.3-32.7,23.9-32.7c7.3,0,14,3.5,15.5,8C1047.9,227.7,1048.6,233,1048.6,238.8z"/>
	<path d="M1184.9,267.7l-2.5,1.6c-9.8,6.2-13.7,8.1-20,9.9c-3.7,1.2-7.5,1.7-11.9,1.7c-9.2,0-17.5-4.5-21.7-11.6
		c-2-3.4-2.7-6.2-3.2-13.1h71v-14.5c0-30.6-19.6-51.9-47.7-51.9c-32.2,0-56.5,26.8-56.5,62.3c0,34.3,21.5,56.5,54.7,56.5
		c12.7,0,24.7-2.6,36.5-7.9c2.9-1.3,6.8-3.2,11.7-5.9l2.2-1.2L1184.9,267.7z M1127.4,233.5c2.7-11.3,9.6-17.5,19.6-17.5
		c9.3,0,15.1,2.9,16.3,17.5H1127.4z"/>
	<path d="M298.6,307.9c-20,0-33.5-7.9-33.5-34.6v-54.5h-13.7V191h13.7v-29.4h32.6V191h27v27.9h-27V268c0,7.5,3.2,11.2,10.5,11.2
		c6,0,11.4-1.5,16.1-4.1v26.2C317.4,305.3,309.5,307.9,298.6,307.9"/>
	<path d="M583.8,307.9c-20,0-33.5-7.9-33.5-34.6v-54.5h-13.7V191h13.7v-29.4H583V191h27v27.9h-27V268c0,7.5,3.2,11.2,10.5,11.2
		c6,0,11.4-1.5,16.1-4.1v26.2C602.7,305.3,594.8,307.9,583.8,307.9"/>
	<path d="M760.8,307.9c-20,0-33.5-7.9-33.5-34.6v-54.5h-13.7V191h13.7v-29.4H760V191h27v27.9h-27V268c0,7.5,3.2,11.2,10.5,11.2
		c6,0,11.4-1.5,16.1-4.1v26.2C779.7,305.3,771.8,307.9,760.8,307.9"/>
	<path d="M865.6,222.9c-21.7,0-35,13.1-35,40.6V306H798V191h32.6v23.2c6.7-15.9,17.4-26.2,36.7-25.3v34.1H865.6z"/>
</g>
</svg>
