<svg id="Layer_1" data-name="Layer 1" xmlns="http://www.w3.org/2000/svg" viewBox="0 0 340.1 267.6"><defs><style>.cls-1{fill:#5299d3;}.cls-2{fill:#ea442b;}</style></defs><title>Hack Chicago Logo</title><line class="cls-1" x1="312.47" y1="158.25" x2="324.05" y2="185.88"/><line class="cls-1" x1="320.61" y1="158.25" x2="331.48" y2="184.2"/><line class="cls-1" x1="329.28" y1="159.03" x2="337.26" y2="178.07"/><line class="cls-1" x1="307.77" y1="166.47" x2="315.9" y2="185.88"/><line class="cls-1" x1="13.49" y1="239.28" x2="25" y2="266.75"/><line class="cls-1" x1="33.14" y1="266.75" x2="21.56" y2="239.12"/><line class="cls-1" x1="29.91" y1="239.12" x2="41.49" y2="266.75"/><line class="cls-1" x1="6.6" y1="242.27" x2="16.86" y2="266.75"/><line class="cls-1" x1="46.49" y1="239.12" x2="58.07" y2="266.75"/><line class="cls-1" x1="66.21" y1="266.75" x2="54.63" y2="239.12"/><line class="cls-1" x1="62.98" y1="239.12" x2="74.56" y2="266.75"/><line class="cls-1" x1="38.34" y1="239.12" x2="49.92" y2="266.75"/><path class="cls-1" d="M53.85,199.38V224.1H47.07v-9.68H38.78v9.68H32V199.38h6.79v9.12h8.29v-9.12Z"/><path class="cls-1" d="M65.9,199.38h6.2l8.56,24.72H73.77l-1.5-4.84H65.69l-1.46,4.84H57.3Zm5.29,15.35L69,207.07l-2.3,7.66Z"/><path class="cls-1" d="M81.74,211.53a12.28,12.28,0,0,1,3.34-8.39,12.64,12.64,0,0,1,4-2.82,13.73,13.73,0,0,1,11.54.4,9.58,9.58,0,0,1,3.91,3.92l-5.18,3.69a4.29,4.29,0,0,0-.92-1.5,4.8,4.8,0,0,0-1.28-.94,5.7,5.7,0,0,0-1.44-.49,8.15,8.15,0,0,0-1.44-.14,5.28,5.28,0,0,0-2.53.58,5.07,5.07,0,0,0-1.74,1.5,6.49,6.49,0,0,0-1,2.08,8.5,8.5,0,0,0-.33,2.32,8.12,8.12,0,0,0,.38,2.47,6.46,6.46,0,0,0,1.12,2.09,5.48,5.48,0,0,0,1.79,1.44,5.19,5.19,0,0,0,2.39.54,7.07,7.07,0,0,0,1.42-.15,5.57,5.57,0,0,0,1.41-.52,5,5,0,0,0,1.22-.94,4.32,4.32,0,0,0,.85-1.41l5.54,3.3a7.06,7.06,0,0,1-1.69,2.44,10.58,10.58,0,0,1-2.58,1.81,13.2,13.2,0,0,1-3.09,1.11,14.08,14.08,0,0,1-3.22.39,11.45,11.45,0,0,1-5-1.1,12.7,12.7,0,0,1-3.94-2.91,13.3,13.3,0,0,1-2.56-4.1A12.75,12.75,0,0,1,81.74,211.53Z"/><path class="cls-1" d="M108.54,224.1V199.38h6.79v9.4l7.52-9.4h7.66l-9,11.07,9.61,13.65h-7.8L117.21,215l-1.88,2v7.14Z"/><path class="cls-1" d="M141.41,211.53a12.28,12.28,0,0,1,3.34-8.39,12.64,12.64,0,0,1,4-2.82,13.73,13.73,0,0,1,11.54.4,9.64,9.64,0,0,1,3.91,3.92L159,208.33a4.3,4.3,0,0,0-.93-1.5,4.6,4.6,0,0,0-1.27-.94,5.7,5.7,0,0,0-1.44-.49,8.17,8.17,0,0,0-1.45-.14,5.27,5.27,0,0,0-2.52.58,5.07,5.07,0,0,0-1.74,1.5,6.49,6.49,0,0,0-1,2.08,8.5,8.5,0,0,0-.33,2.32,8.12,8.12,0,0,0,.38,2.47,6.46,6.46,0,0,0,1.12,2.09,5.37,5.37,0,0,0,1.79,1.44,5.18,5.18,0,0,0,2.38.54,7.09,7.09,0,0,0,1.43-.15,5.57,5.57,0,0,0,1.41-.52,5,5,0,0,0,1.22-.94,4.32,4.32,0,0,0,.85-1.41l5.54,3.3a7.2,7.2,0,0,1-1.69,2.44,11,11,0,0,1-2.58,1.81,13.12,13.12,0,0,1-3.1,1.11,14,14,0,0,1-3.22.39,11.48,11.48,0,0,1-5-1.1,12.66,12.66,0,0,1-3.93-2.91,13.12,13.12,0,0,1-2.56-4.1A12.75,12.75,0,0,1,141.41,211.53Z"/><path class="cls-1" d="M190.07,199.38V224.1h-6.79v-9.68H175v9.68h-6.79V199.38H175v9.12h8.28v-9.12Z"/><path class="cls-1" d="M195.71,224.1V199.38h6.79V224.1Z"/><path class="cls-1" d="M206.78,211.53a12.43,12.43,0,0,1,.85-4.46,12.14,12.14,0,0,1,2.49-3.93,12.76,12.76,0,0,1,4-2.82,12.56,12.56,0,0,1,5.33-1.08,12.41,12.41,0,0,1,6.21,1.48,9.67,9.67,0,0,1,3.92,3.92l-5.19,3.69a4.29,4.29,0,0,0-.92-1.5,4.75,4.75,0,0,0-1.27-.94,5.91,5.91,0,0,0-1.45-.49,8.15,8.15,0,0,0-1.44-.14,5.12,5.12,0,0,0-4.27,2.08,6.47,6.47,0,0,0-1,2.08,8.15,8.15,0,0,0-.34,2.32,7.83,7.83,0,0,0,.39,2.47,6.25,6.25,0,0,0,1.11,2.09,5.58,5.58,0,0,0,1.79,1.44,5.22,5.22,0,0,0,2.39.54,7.17,7.17,0,0,0,1.43-.15,5.86,5.86,0,0,0,1.41-.52,5,5,0,0,0,1.21-.94,4.34,4.34,0,0,0,.86-1.41l5.53,3.3A6.93,6.93,0,0,1,228.1,221a10.72,10.72,0,0,1-2.57,1.81,13.45,13.45,0,0,1-3.1,1.11,14,14,0,0,1-3.22.39,11.48,11.48,0,0,1-5-1.1,12.66,12.66,0,0,1-3.93-2.91,12.94,12.94,0,0,1-2.56-4.1A12.56,12.56,0,0,1,206.78,211.53Z"/><path class="cls-1" d="M239.61,199.38h6.2l8.56,24.72h-6.89l-1.5-4.84H239.4l-1.46,4.84H231Zm5.29,15.35-2.19-7.66-2.3,7.66Z"/><path class="cls-1" d="M273.59,222a9.19,9.19,0,0,1-6.1,2.23,12.51,12.51,0,0,1-4.59-.85,11,11,0,0,1-3.83-2.49,12.17,12.17,0,0,1-2.61-4,14.09,14.09,0,0,1-1-5.4,12.06,12.06,0,0,1,3.66-8.75,12.65,12.65,0,0,1,4-2.62,13.08,13.08,0,0,1,5-.95,14,14,0,0,1,3.21.36,11.85,11.85,0,0,1,2.83,1.08,11.24,11.24,0,0,1,2.35,1.71,8.6,8.6,0,0,1,1.71,2.24l-5.05,3.87a5.63,5.63,0,0,0-2.19-2.35,5.91,5.91,0,0,0-3.1-.89,5,5,0,0,0-2.23.49,5.18,5.18,0,0,0-1.74,1.35,6.54,6.54,0,0,0-1.15,2.08,8.67,8.67,0,0,0,0,5.27,6.19,6.19,0,0,0,1.17,2,5.31,5.31,0,0,0,1.79,1.32,5.72,5.72,0,0,0,2.34.47,6.93,6.93,0,0,0,5.22-2.44H269v-4.87h10.17V224.1h-5.6Z"/><path class="cls-1" d="M295.06,224.31a11.84,11.84,0,0,1-5.11-1.08,12.75,12.75,0,0,1-3.94-2.84,12.94,12.94,0,0,1-2.54-4,12.51,12.51,0,0,1-.9-4.67,12.1,12.1,0,0,1,.94-4.7,12.38,12.38,0,0,1,2.63-4,12.57,12.57,0,0,1,4-2.75,12.24,12.24,0,0,1,5.06-1,11.89,11.89,0,0,1,5.12,1.08,12.7,12.7,0,0,1,6.46,6.89,12.61,12.61,0,0,1,.89,4.63,12.16,12.16,0,0,1-.94,4.69,12.67,12.67,0,0,1-6.6,6.73A12.11,12.11,0,0,1,295.06,224.31Zm-5.6-12.54a8.43,8.43,0,0,0,.35,2.42,6.3,6.3,0,0,0,1,2.07,5.69,5.69,0,0,0,6.83,1.45,5.1,5.1,0,0,0,1.75-1.5,6.2,6.2,0,0,0,1-2.1,8.92,8.92,0,0,0,.33-2.41,8.52,8.52,0,0,0-.34-2.42,6.07,6.07,0,0,0-1.07-2.05,5.3,5.3,0,0,0-1.77-1.43,5.44,5.44,0,0,0-2.49-.54,5.33,5.33,0,0,0-2.52.56,5.18,5.18,0,0,0-1.76,1.48,6.19,6.19,0,0,0-1,2.09A8.71,8.71,0,0,0,289.46,211.77Z"/><path class="cls-1" d="M1.52,253.71A1.52,1.52,0,0,1,0,252.19a15.42,15.42,0,0,1,15.41-15.41H324.69a12.39,12.39,0,0,0,12.37-12.38V171.32a1.52,1.52,0,1,1,3,0V224.4a15.43,15.43,0,0,1-15.41,15.42H15.41A12.39,12.39,0,0,0,3,252.19,1.52,1.52,0,0,1,1.52,253.71Z"/><path class="cls-1" d="M74.28,267.6H15.41A15.42,15.42,0,0,1,0,252.19a1.52,1.52,0,0,1,3,0,12.39,12.39,0,0,0,12.37,12.38H74.28a1.52,1.52,0,1,1,0,3Z"/><path class="cls-1" d="M1.52,253.71A1.52,1.52,0,0,1,0,252.19V198.8a15.43,15.43,0,0,1,15.41-15.41l309.28.31a12.38,12.38,0,0,0,0-24.75H307.76a1.52,1.52,0,0,1,0-3h16.93a15.41,15.41,0,1,1,0,30.82l-309.28-.3A12.39,12.39,0,0,0,3,198.8v53.39A1.52,1.52,0,0,1,1.52,253.71Z"/><path class="cls-1" d="M324.05,185.81a.75.75,0,0,1-.7-.46l-11.58-27.63a.76.76,0,0,1,1.4-.59l11.58,27.63a.76.76,0,0,1-.41,1A.72.72,0,0,1,324.05,185.81Z"/><path class="cls-1" d="M331.49,184.13a.75.75,0,0,1-.7-.46l-10.88-25.95a.76.76,0,0,1,1.4-.59l10.87,26a.75.75,0,0,1-.4,1A.79.79,0,0,1,331.49,184.13Z"/><path class="cls-1" d="M337.26,178a.76.76,0,0,1-.7-.46l-8-19a.77.77,0,0,1,.41-1,.76.76,0,0,1,1,.41l8,19a.76.76,0,0,1-.4,1A.8.8,0,0,1,337.26,178Z"/><path class="cls-1" d="M315.9,185.81a.76.76,0,0,1-.7-.46l-9.31-22.23a.75.75,0,0,1,.4-1,.76.76,0,0,1,1,.4l9.31,22.23a.76.76,0,0,1-.4,1A.8.8,0,0,1,315.9,185.81Z"/><path class="cls-1" d="M25,266.68a.77.77,0,0,1-.7-.46L12.79,238.75a.76.76,0,0,1,1.4-.59L25.7,265.63a.75.75,0,0,1-.4,1A.8.8,0,0,1,25,266.68Z"/><path class="cls-1" d="M33.14,266.68a.76.76,0,0,1-.7-.46L20.86,238.59a.76.76,0,0,1,1.4-.59l11.58,27.63a.76.76,0,0,1-.4,1A.8.8,0,0,1,33.14,266.68Z"/><path class="cls-1" d="M41.49,266.68a.75.75,0,0,1-.7-.46L29.21,238.59a.76.76,0,0,1,1.4-.59l11.58,27.63a.75.75,0,0,1-.41,1A.72.72,0,0,1,41.49,266.68Z"/><path class="cls-1" d="M16.86,266.68a.75.75,0,0,1-.7-.46L5.9,241.74a.75.75,0,0,1,.4-1,.77.77,0,0,1,1,.41l10.25,24.47a.75.75,0,0,1-.4,1A.79.79,0,0,1,16.86,266.68Z"/><path class="cls-1" d="M58.07,266.68a.76.76,0,0,1-.7-.46L45.79,238.59a.76.76,0,0,1,1.4-.59l11.58,27.63a.75.75,0,0,1-.4,1A.8.8,0,0,1,58.07,266.68Z"/><path class="cls-1" d="M66.21,266.68a.76.76,0,0,1-.7-.46L53.93,238.59a.76.76,0,0,1,1.4-.59l11.58,27.63a.76.76,0,0,1-.4,1A.8.8,0,0,1,66.21,266.68Z"/><path class="cls-1" d="M74.56,266.68a.75.75,0,0,1-.7-.46L62.28,238.59a.76.76,0,0,1,1.4-.59l11.58,27.63a.75.75,0,0,1-.41,1A.72.72,0,0,1,74.56,266.68Z"/><path class="cls-1" d="M49.92,266.68a.75.75,0,0,1-.69-.46L37.65,238.59A.76.76,0,1,1,39,238l11.58,27.63a.75.75,0,0,1-.4,1A.8.8,0,0,1,49.92,266.68Z"/><polygon class="cls-2" points="17.61 207.93 18.86 210.45 21.64 210.85 19.63 212.81 20.1 215.59 17.61 214.28 15.13 215.59 15.6 212.81 13.59 210.85 16.37 210.45 17.61 207.93"/><polygon class="cls-2" points="324.05 207.93 325.29 210.45 328.08 210.85 326.06 212.81 326.54 215.59 324.05 214.28 321.56 215.59 322.04 212.81 320.02 210.85 322.81 210.45 324.05 207.93"/><path class="cls-1" d="M157.35,77.09a.36.36,0,0,1-.27-.12.38.38,0,0,1,0-.54l23.3-21.86L169.83,42.75l-11.35,12.1a.38.38,0,0,1-.54,0,.39.39,0,0,1,0-.54l11.64-12.41a.37.37,0,0,1,.28-.12.39.39,0,0,1,.28.13L181.2,54.34a.37.37,0,0,1,0,.53L157.61,77A.38.38,0,0,1,157.35,77.09Z"/><path class="cls-1" d="M182.57,97.9a.36.36,0,0,1-.24-.09L157.11,77a.39.39,0,0,1-.05-.54.38.38,0,0,1,.53,0l25.22,20.82a.38.38,0,0,1,.05.53A.38.38,0,0,1,182.57,97.9Z"/><path class="cls-1" d="M155.63,120.27a.36.36,0,0,1-.29-.13.39.39,0,0,1,0-.54l26.93-22.37a.39.39,0,0,1,.54,0,.38.38,0,0,1-.05.53l-26.94,22.38A.35.35,0,0,1,155.63,120.27Z"/><path class="cls-1" d="M172.23,133.42a.35.35,0,0,1-.23-.09l-16.6-13.14a.37.37,0,0,1-.07-.53.39.39,0,0,1,.54-.06l16.6,13.14a.38.38,0,0,1,.06.53A.36.36,0,0,1,172.23,133.42Z"/><path class="cls-1" d="M156.55,97.9a.35.35,0,0,1-.29-.14.38.38,0,0,1,.05-.53l24.87-20.81L157.94,54.87a.38.38,0,0,1,0-.53.37.37,0,0,1,.54,0L182,76.16a.41.41,0,0,1,.13.29.42.42,0,0,1-.14.28L156.8,97.81A.4.4,0,0,1,156.55,97.9Z"/><path class="cls-1" d="M154.64,144.88a.39.39,0,0,1-.29-.13.38.38,0,0,1,0-.54l18.06-15.44a.39.39,0,0,1,.54,0,.38.38,0,0,1,0,.53l-18.07,15.44A.38.38,0,0,1,154.64,144.88Z"/><path class="cls-1" d="M178.67,124.34a.41.41,0,0,1-.29-.13.4.4,0,0,1,0-.54l4.42-3.77L156.31,97.81a.38.38,0,0,1,.48-.58l26.88,22.37a.37.37,0,0,1,.14.29.39.39,0,0,1-.13.29l-4.76,4.07A.38.38,0,0,1,178.67,124.34Z"/><path class="cls-1" d="M170.3,156.24a.34.34,0,0,1-.22-.07l-15.67-11.36a.38.38,0,0,1,.45-.62l15.66,11.36a.38.38,0,0,1,.09.53A.37.37,0,0,1,170.3,156.24Z"/><path class="cls-1" d="M203.45,17.59a2.49,2.49,0,0,0-.43.9c-.2.54-.54,1.42-1,2.65h0a10.06,10.06,0,0,0,1.47-.13l.31,0c.06-.69.1-1.08.11-1.18l.15-.66.12-.52.13-1.48-.28,0C203.79,17.11,203.6,17.26,203.45,17.59Z"/><path class="cls-1" d="M239.47,19.16c-.16-.31-.33-.46-.5-.47a1.19,1.19,0,0,0-.46.09l-.2.1-.2.17.63,1.2h0c.57-.37.82-.62.75-.76s0-.1,0-.24Z"/><path class="cls-1" d="M238.34,16.36l-.54-1a2.54,2.54,0,0,0-.87-.9,2.66,2.66,0,0,0-1,.13l-.31.16c.68,1,1.32,2.16,1.93,3.32h0a1.5,1.5,0,0,0,.54-.55,1,1,0,0,0,.31-.66A2,2,0,0,1,238.34,16.36Z"/><path class="cls-1" d="M242.39,12.5l2.87-5.37c-7.63,5.23-19.72,10-30.62,6.48-18-5.77-22.51-2.48-22.51-2.48l-3.2,8.18-2.39,6.21c7.49-3.95,27.18,11.08,45.93,1.19,15.65-8.26,17-11.73,17-11.73C246.93,16.26,242.39,12.5,242.39,12.5Zm-43.52,8.19,0,.14q-.08.23-.24.87l-.21.71a4.74,4.74,0,0,0-.18.87c0,.08-.19.09-.49,0a2.59,2.59,0,0,1-.52-.12c-.12,0-.15-.16-.09-.36a.47.47,0,0,1,.06-.15c0-.19.15-.59.35-1.23a7.25,7.25,0,0,0,.19-.74,8.47,8.47,0,0,0-1.45-.13l-.7-.09c-.05.28-.21.84-.46,1.68a2.87,2.87,0,0,1-.33.65h-.09c-.59-.18-.87-.33-.83-.45.08-.27.12-.43.13-.49l.37-1.06.12-.54.15-.49,1-3.06c.34-1.11.56-1.85.66-2.24,0-.14.35-.11.93.06.15.05.2.12.17.23s-.07.2-.08.19v.12l-.62,2c-.24.76-.48,1.51-.75,2.27a11.19,11.19,0,0,0,1.36.15c.47.06.73.1.79.12.12-.28.22-.58.32-.89l.56-1.84c.11-.45.19-.76.25-.94a5.37,5.37,0,0,1,.11-.7c.05-.14.35-.13.91,0,.18.06.22.23.13.53l-.28,1.24-.62,2C199.31,19.46,199.12,20,198.87,20.69Zm6.42-2.06c0,.14-.12.66-.32,1.58l-.18,2.13c0,.28-.06.54-.09.79a8.93,8.93,0,0,0-.13,1.45,5.64,5.64,0,0,1,0,.63c0,.11-.38.11-1.07,0-.09,0-.1-.4,0-1.12q.06-.51.09-.87c0-.07,0-.27.1-.61l0-.51c-.09,0-.56.05-1.41.16l-.27,0a3.87,3.87,0,0,0-.45,0l-.17.7c-.13.44-.22.74-.26.92,0,0,0,.09,0,.22l0,.18c0,.15-.31.17-.81.05-.19,0-.3-.1-.34-.19l0,0c.2-.72.39-1.45.58-2.19.41-1.08.61-1.66.63-1.73a10.58,10.58,0,0,0,.62-1.55A2.17,2.17,0,0,0,202,18a3.55,3.55,0,0,0,.26-.6c.05,0,.11-.12.19-.31l.21-.28q.41-.61.63-.6a2.09,2.09,0,0,1,1.35-.08.93.93,0,0,1,.74.7,1.43,1.43,0,0,1,0,.47ZM211,20c0,.13-.08.18-.19.16l-.71-.1c-.12,0-.17-.13-.17-.32s0-.3.09-.68a.6.6,0,0,0-.18-.38l-.49-.19-.18,0c-.43.09-.66.21-.68.35s-.13.18-.3.56a2.33,2.33,0,0,0-.31.86c-.13.82-.26,1.65-.39,2.51a3.55,3.55,0,0,0,.08.92c0,.34.06.56.08.66s.23.38.4.41a2,2,0,0,1,.32.17l.46.07a.45.45,0,0,0,.37-.34,1.06,1.06,0,0,0,.06-.19l.06-.43.08-.43a1.28,1.28,0,0,1,0-.19.21.21,0,0,1,.23-.13l.67.1a.22.22,0,0,1,.21.27l-.09.5-.1.61a2,2,0,0,1-.35.8,1.79,1.79,0,0,1-1,.52s-.06,0-.17,0L208,26c-.67-.29-1-.51-1.07-.67a1.78,1.78,0,0,1-.45-1.24,2.66,2.66,0,0,1-.1-1.07s0-.29.06-.85l.34-2.22a4.87,4.87,0,0,1,.53-1.37.64.64,0,0,0,.14-.32,3.93,3.93,0,0,1,.61-.59l.52-.2a1.43,1.43,0,0,1,.53-.09,3.49,3.49,0,0,1,.44.05,2.57,2.57,0,0,1,1.19.6,2,2,0,0,1,.39,1Zm5.74-1.32a6.09,6.09,0,0,1-.48,1.13,3.22,3.22,0,0,1-.38.89,11,11,0,0,1-.49,1,5.7,5.7,0,0,0-.36.69l-.51,1c.18.32.42.74.72,1.24.06.16.15.36.27.61a8.7,8.7,0,0,1,.35.8,9.47,9.47,0,0,1,.41,1.15c0,.13-.27.25-.76.36h-.12c-.1,0-.29-.38-.57-1.11a9.8,9.8,0,0,0-1-2,4.25,4.25,0,0,0-.42-.61h0l0,.44q0,.3,0,.33l-.11,1a4.87,4.87,0,0,1,0,.82c0,.07-.12.1-.25.08l-.73-.08c-.12,0-.17-.17-.14-.46a.58.58,0,0,0,0-.17c0-.09,0-.44.11-1.05,0-.24,0-.36,0-.38l.51-4.83a8.85,8.85,0,0,1,.07-1.37.2.2,0,0,1,.22-.14l.67.08c.17,0,.24.09.23.21a2.21,2.21,0,0,0,0,.42,1.14,1.14,0,0,0-.06.25v.61c-.13,1.29-.25,2.46-.38,3.52h0a1.17,1.17,0,0,1,.21-.4c.4-.78.6-1.19.6-1.21a2.88,2.88,0,0,0,.36-.66,14.6,14.6,0,0,0,.75-1.68,1.78,1.78,0,0,0,.18-.61c.09-.17.18-.26.29-.25.62.18.92.31.91.39Zm8.6,6.85a1.81,1.81,0,0,1-.78.83s0,.06-.15.08l-.77.16c-.73-.05-1.15-.14-1.24-.28a1.77,1.77,0,0,1-.83-1,2.43,2.43,0,0,1-.46-1s-.12-.27-.23-.82l-.42-2.2a5,5,0,0,1,0-1.48.63.63,0,0,0,0-.34,3.51,3.51,0,0,1,.38-.76l.42-.37a1.61,1.61,0,0,1,.47-.26l.43-.1a2.67,2.67,0,0,1,1.32.17c.44.37.67.64.7.8l.2,1a.15.15,0,0,1-.12.21l-.71.14c-.12,0-.2-.05-.26-.23a4.85,4.85,0,0,1-.15-.67c0-.1-.12-.19-.29-.3l-.53,0-.18,0c-.38.23-.55.41-.53.55a2.73,2.73,0,0,0-.09.63,2.36,2.36,0,0,0,0,.92c.15.8.31,1.63.47,2.49a3.61,3.61,0,0,0,.39.84,5.22,5.22,0,0,0,.3.6.56.56,0,0,0,.52.25,1.46,1.46,0,0,1,.35,0l.45-.09a.44.44,0,0,0,.24-.45,1.28,1.28,0,0,0,0-.19l-.08-.42-.07-.44a.64.64,0,0,1-.06-.18.2.2,0,0,1,.17-.2l.67-.13a.22.22,0,0,1,.29.18l.08.5.11.61A2.05,2.05,0,0,1,225.36,25.55Zm4.65-.71a.61.61,0,0,1-.22.08c-1,.28-1.49.42-1.5.4l0,0-.2.05c-.12,0-.22-.09-.3-.37,0-.06-.16-.45-.43-1.16a23.15,23.15,0,0,0-1-3l-.25-.87a5.59,5.59,0,0,0-.2-.55c-.33-1.13-.53-1.79-.58-2s.08-.21.33-.29c.47-.14.72-.16.75-.07a4.87,4.87,0,0,1,.14.61c.13.39.26.8.37,1.22a4.75,4.75,0,0,0,.2.52l.35,1.25s.13.18.26.57a16.76,16.76,0,0,1,.61,2l.23.72a.13.13,0,0,0,.17.1l.71-.3c.2-.1.44-.21.71-.32s.23.05.29.26.17.51.21.66S230.46,24.67,230,24.84Zm4.53-1.49-.7.3a2.69,2.69,0,0,1-1,.11,1.53,1.53,0,0,1-.63-.29,2.87,2.87,0,0,1-.79-.94l-.7-1.59c-.12-.41-.19-.65-.22-.72q-.39-1-.48-1.41l-.7-1.62a0,0,0,0,1,0,0l0,0-.14-.31c0-.15.05-.28.32-.4a1.74,1.74,0,0,1,.44-.22c.13-.05.22,0,.26.06a.67.67,0,0,0,.06.15l.17.49.72,1.7c.07.19.15.41.23.68s.16.48.23.65a4.45,4.45,0,0,1,.19.65l.66,1.49c.29.38.48.57.57.55s.19,0,.51-.05l.42-.18a1,1,0,0,0,.13-.49,1.85,1.85,0,0,0-.11-.85l-.4-.89a3.73,3.73,0,0,1-.16-.59,1,1,0,0,0-.06-.19q0-.12-.54-1.23c-.24-.74-.39-1.19-.45-1.36-.26-.63-.45-1-.55-1.21s.17-.3.65-.54l0,0c.17-.06.27,0,.32.07l.42.94.29.81c.13.34.23.64.3.89.3.67.47,1.07.52,1.2a5.49,5.49,0,0,1,.27.89l.43.95a4.61,4.61,0,0,1,.11.59C235.19,22.49,235,23.16,234.54,23.35Zm5.94-3.23a2.69,2.69,0,0,1-1.22,1.12l-.35.18q-.61.33-.66.24l-.07-.09L237,19.38l-.32-.51a46.18,46.18,0,0,0-2.46-4.19.41.41,0,0,1,0-.37,1,1,0,0,1,.1-.21l.94-.48a3,3,0,0,1,1.9-.27,2.61,2.61,0,0,1,.91.57,5.48,5.48,0,0,1,.83,1.19l.21.4a3.62,3.62,0,0,1,.37,1.35,3.1,3.1,0,0,1-.18.75,1.74,1.74,0,0,1,.89.65,7,7,0,0,1,.39.69A1.83,1.83,0,0,1,240.48,20.12Z"/><polygon class="cls-1" points="182.57 38.25 181.72 37.92 192.14 11.12 193.01 11.39 182.57 38.25"/><path class="cls-1" d="M30.27,184.9a.75.75,0,0,1-.76-.75V167.4a.76.76,0,0,1,.76-.76h17V133.87a.76.76,0,0,1,.76-.76h5.79V85.69a.76.76,0,0,1,.76-.76H70a.76.76,0,0,1,.76.76V115a.76.76,0,0,1-1.52,0V86.45H55.31v47.42a.76.76,0,0,1-.76.76H48.76V167.4a.76.76,0,0,1-.76.76H31v16A.75.75,0,0,1,30.27,184.9Z"/><path class="cls-1" d="M85,179a.76.76,0,0,1-.76-.76V137.78l-5-2.87a.74.74,0,0,1-.38-.66V66.8h-17V85.69a.75.75,0,0,1-.75.76.76.76,0,0,1-.76-.76V66a.76.76,0,0,1,.76-.76H79.6a.76.76,0,0,1,.76.76v67.77l5,2.87a.77.77,0,0,1,.38.66v40.85A.76.76,0,0,1,85,179Z"/><path class="cls-1" d="M75,179a.76.76,0,0,1-.76-.76V116.13H58.4v62.06a.76.76,0,1,1-1.52,0V115.37a.76.76,0,0,1,.76-.76H75a.76.76,0,0,1,.76.76v62.82A.76.76,0,0,1,75,179Z"/><path class="cls-1" d="M135.51,158.24a.76.76,0,0,1-.76-.76V95.92H109V156.4a.76.76,0,0,1-1.52,0V95.16a.76.76,0,0,1,.76-.76h27.3a.76.76,0,0,1,.76.76v62.32A.76.76,0,0,1,135.51,158.24Z"/><path class="cls-1" d="M154.46,152.77H142a.76.76,0,0,1-.76-.76V99.06l-6.09-3.23a.75.75,0,0,1-.32-1,.76.76,0,0,1,1-.32l6.49,3.45a.76.76,0,0,1,.41.67v52.64h11l4.45-115.78a.76.76,0,0,1,.75-.73h21.25a.77.77,0,0,1,.61.3l5,6.56a.79.79,0,0,1,.15.42l4.46,81.9a.77.77,0,0,1-.71.8.75.75,0,0,1-.8-.72l-4.45-81.67-4.62-6.07H159.66L155.22,152A.76.76,0,0,1,154.46,152.77Z"/><path class="cls-1" d="M154.87,142h0a.77.77,0,0,1-.73-.79L158,40a.78.78,0,0,1,.79-.73.75.75,0,0,1,.73.78l-3.89,101.24A.75.75,0,0,1,154.87,142Z"/><path class="cls-1" d="M183.58,124.72a.75.75,0,0,1-.75-.73l-3.41-88.46a.76.76,0,1,1,1.52-.06l3.4,88.46a.76.76,0,0,1-.73.79Z"/><path class="cls-1" d="M180.44,42.94H158.76a.76.76,0,1,1,0-1.52h21.68a.76.76,0,0,1,0,1.52Z"/><path class="cls-1" d="M306.43,185.12a.76.76,0,0,1-.76-.76V126.92l-10.24-16.8-10.25,16.8v53a.76.76,0,0,1-.76.76H274.07a.76.76,0,0,1-.76-.76V154.65h-6a.76.76,0,0,1-.76-.76V108.44l-3.9-2.42H242.14v64.21a.76.76,0,0,1-.76.76h-6.07a.76.76,0,0,1-.75-.76v-7h-7.74a.76.76,0,0,1-.76-.76V125.93h-2a.76.76,0,0,1-.76-.76V108.53h-3.53a.76.76,0,0,1-.75-.64l-1.19-7.45-.78,7.41a.76.76,0,0,1-.76.68h-4v16a.75.75,0,0,1-.29.59l-1.73,1.39v34.26a.76.76,0,0,1-.76.76H200a.76.76,0,0,1-.76-.76V137.6h-2a.76.76,0,0,1-.76-.76v-6.63H195.1a.75.75,0,0,1-.75-.76v-4.73H176.87l-3.88,5v7.13a.76.76,0,0,1-.76.76h-1.17v30.06a.76.76,0,0,1-1.52,0V136.84a.76.76,0,0,1,.76-.76h1.18v-6.63a.75.75,0,0,1,.15-.46l4.27-5.5a.76.76,0,0,1,.6-.29h18.6a.76.76,0,0,1,.76.76v4.73h1.38a.76.76,0,0,1,.75.76v6.63h2a.76.76,0,0,1,.76.76V160h8V126.14a.78.78,0,0,1,.28-.6l1.74-1.39V107.77a.76.76,0,0,1,.76-.76h4.09l1.3-12.42a.76.76,0,0,1,.74-.68.75.75,0,0,1,.77.64l2,12.46h3.64a.76.76,0,0,1,.76.76v16.64h2a.76.76,0,0,1,.76.76V161.7h7.73a.76.76,0,0,1,.76.76v7h4.55V105.26a.75.75,0,0,1,.76-.75H262.9a.71.71,0,0,1,.4.11l4.45,2.75a.77.77,0,0,1,.36.65v45.11h6a.76.76,0,0,1,.76.76v25.29h8.83V126.7a.77.77,0,0,1,.11-.39l11-18a.79.79,0,0,1,1.29,0l11,18a.77.77,0,0,1,.11.39v57.66A.76.76,0,0,1,306.43,185.12Z"/><path class="cls-1" d="M262.9,182.31a.75.75,0,0,1-.76-.75v-76.3a.76.76,0,0,1,1.52,0v76.3A.75.75,0,0,1,262.9,182.31Z"/><path class="cls-1" d="M295.43,139.92a.76.76,0,0,1-.57-.25l-11-12.46a.78.78,0,0,1,.07-1.08.77.77,0,0,1,1.07.07L295.43,138l10.43-11.82a.76.76,0,1,1,1.14,1l-11,12.46A.75.75,0,0,1,295.43,139.92Z"/><path class="cls-1" d="M106.08,163.64H93.68a.76.76,0,0,1-.76-.76v-7.62H85a.76.76,0,1,1,0-1.52h8.68a.76.76,0,0,1,.76.76v7.62h10.88V156.4a.76.76,0,0,1,.76-.76h24.8a.76.76,0,1,1,0,1.51h-24v5.73A.76.76,0,0,1,106.08,163.64Z"/><path class="cls-1" d="M164.09,36.26a.76.76,0,0,1-.76-.76V.76a.76.76,0,1,1,1.52,0V35.5A.76.76,0,0,1,164.09,36.26Z"/><polyline class="cls-1" points="161.66 35.5 161.66 21.81 166.52 21.81 166.52 35.5"/><path class="cls-1" d="M172.6,36.26a.76.76,0,0,1-.76-.76V.76a.76.76,0,0,1,1.52,0V35.5A.76.76,0,0,1,172.6,36.26Z"/><polyline class="cls-1" points="170.17 35.5 170.17 21.81 175.03 21.81 175.03 35.5"/><path class="cls-1" d="M66.26,66.8A.76.76,0,0,1,65.5,66V45.12a.76.76,0,0,1,1.52,0V66A.76.76,0,0,1,66.26,66.8Z"/><path class="cls-1" d="M73.69,66.8a.76.76,0,0,1-.76-.76V45.12a.76.76,0,1,1,1.52,0V66A.76.76,0,0,1,73.69,66.8Z"/><path class="cls-1" d="M115.41,156.77a.37.37,0,0,1-.38-.37V100.7a.38.38,0,1,1,.76,0v55.7A.37.37,0,0,1,115.41,156.77Z"/><path class="cls-1" d="M122,156.77a.37.37,0,0,1-.38-.37V100.7a.38.38,0,1,1,.76,0v55.7A.37.37,0,0,1,122,156.77Z"/><path class="cls-1" d="M128.31,156.77a.37.37,0,0,1-.38-.37V100.7a.38.38,0,1,1,.76,0v55.7A.37.37,0,0,1,128.31,156.77Z"/><path class="cls-1" d="M177.52,168.27a.38.38,0,0,1-.38-.38V137.5a.38.38,0,0,1,.76,0v30.39A.38.38,0,0,1,177.52,168.27Z"/><path class="cls-1" d="M184.88,168.27a.38.38,0,0,1-.38-.38V137.5a.38.38,0,0,1,.76,0v30.39A.38.38,0,0,1,184.88,168.27Z"/><path class="cls-1" d="M191.94,168.27a.38.38,0,0,1-.37-.38V137.5a.38.38,0,1,1,.75,0v30.39A.38.38,0,0,1,191.94,168.27Z"/><path class="cls-1" d="M197.24,137.6h-25a.76.76,0,0,1,0-1.52h25a.76.76,0,0,1,0,1.52Z"/><path class="cls-1" d="M195.1,130.21H172.23a.76.76,0,0,1,0-1.52H195.1a.76.76,0,0,1,0,1.52Z"/><path class="cls-1" d="M224.07,117.6H211.53a.76.76,0,1,1,0-1.52h12.54a.76.76,0,1,1,0,1.52Z"/><path class="cls-1" d="M226.82,126.9H209.51a.76.76,0,1,1,0-1.52h17.31a.76.76,0,1,1,0,1.52Z"/><path class="cls-1" d="M213.94,172.41a.38.38,0,0,1-.38-.38V129.45a.38.38,0,0,1,.76,0V172A.38.38,0,0,1,213.94,172.41Z"/><path class="cls-1" d="M218.16,172.41a.38.38,0,0,1-.38-.38V129.45a.38.38,0,0,1,.76,0V172A.38.38,0,0,1,218.16,172.41Z"/><path class="cls-1" d="M222.39,172.41A.38.38,0,0,1,222,172V129.45a.38.38,0,0,1,.76,0V172A.38.38,0,0,1,222.39,172.41Z"/><path class="cls-1" d="M288.09,180.32a.38.38,0,0,1-.38-.38V130.86a.38.38,0,0,1,.76,0v49.08A.38.38,0,0,1,288.09,180.32Z"/><path class="cls-1" d="M291.76,180.32a.38.38,0,0,1-.38-.38V135a.38.38,0,0,1,.76,0v44.94A.38.38,0,0,1,291.76,180.32Z"/><path class="cls-1" d="M295.43,180.32a.38.38,0,0,1-.38-.38V138.88a.38.38,0,0,1,.76,0v41.06A.38.38,0,0,1,295.43,180.32Z"/><path class="cls-1" d="M299.1,180.32a.38.38,0,0,1-.38-.38V135a.38.38,0,0,1,.76,0v44.94A.38.38,0,0,1,299.1,180.32Z"/><path class="cls-1" d="M302.77,180.32a.38.38,0,0,1-.38-.38V130.85a.38.38,0,0,1,.76,0v49.09A.38.38,0,0,1,302.77,180.32Z"/><path class="cls-1" d="M295.43,109.42a.76.76,0,0,1-.76-.76V97.52a.76.76,0,0,1,.76-.76.75.75,0,0,1,.75.76v11.14A.75.75,0,0,1,295.43,109.42Z"/></svg>